<?xml version="1.0" standalone="no"?>
<!DOCTYPE svg PUBLIC "-//W3C//DTD SVG 20010904//EN"
 "http://www.w3.org/TR/2001/REC-SVG-20010904/DTD/svg10.dtd">
<svg version="1.0" xmlns="http://www.w3.org/2000/svg"
 width="1042.000000pt" height="1043.000000pt" viewBox="0 0 1042.000000 1043.000000"
 preserveAspectRatio="xMidYMid meet">

<g transform="translate(0.000000,1043.000000) scale(0.100000,-0.100000)"
fill="#000000" stroke="none">
<path d="M4880 10414 c-19 -2 -91 -9 -160 -14 -920 -79 -1876 -446 -2625
-1010 -944 -711 -1605 -1683 -1915 -2815 -122 -446 -174 -858 -174 -1360 0
-324 7 -449 45 -725 201 -1458 1032 -2783 2264 -3605 722 -481 1492 -757 2390
-856 157 -17 688 -23 865 -10 1119 83 2135 494 2995 1212 149 125 451 425 591
588 1262 1465 1608 3511 897 5311 -211 534 -518 1041 -897 1481 -141 164 -443
464 -591 587 -860 717 -1874 1129 -2980 1211 -126 10 -618 13 -705 5z m1803
-2666 c261 -199 579 -520 818 -828 261 -336 501 -773 639 -1165 l30 -83 0
-1216 0 -1216 -520 0 -520 0 0 140 0 140 -2005 0 -2005 0 0 -140 0 -140 -515
0 -515 0 0 1218 0 1218 24 70 c110 322 310 708 518 1004 253 359 630 758 943
998 l80 62 1473 0 1473 0 82 -62z m-4539 -1088 c63 -24 129 -77 152 -121 18
-36 18 -102 0 -137 -92 -176 -463 -211 -621 -58 -125 120 -54 273 155 333 72
20 242 11 314 -17z m6281 16 c209 -56 284 -210 159 -331 -177 -172 -589 -108
-638 99 -21 87 78 194 214 232 60 17 203 17 265 0z"/>
<path d="M3644 7486 c-204 -176 -472 -461 -631 -671 -109 -145 -292 -437 -293
-467 0 -5 1085 -8 2410 -8 1326 0 2410 3 2410 7 0 27 -188 325 -293 465 -160
211 -501 571 -673 711 l-71 57 -1375 0 -1375 0 -109 -94z"/>
<path d="M2486 5287 c-182 -49 -184 -50 -166 -146 29 -159 186 -285 410 -331
308 -63 618 -10 693 119 l18 31 -53 24 c-29 13 -208 96 -397 185 -189 88 -344
161 -345 160 0 0 -73 -19 -160 -42z"/>
<path d="M7265 5169 c-187 -88 -364 -171 -393 -184 l-53 -25 18 -31 c76 -133
421 -187 723 -113 227 56 386 212 378 370 l-3 57 -144 38 c-80 21 -154 40
-165 43 -13 3 -146 -54 -361 -155z"/>
<path d="M3900 4825 c0 -2 79 -115 175 -250 l176 -245 878 0 877 0 160 222
c87 122 167 234 177 250 l19 28 -1231 0 c-677 0 -1231 -2 -1231 -5z"/>
<path d="M4300 3955 l0 -115 825 0 825 0 0 115 0 115 -825 0 -825 0 0 -115z"/>
</g>
</svg>
