<?xml version="1.0" standalone="no"?>
<!DOCTYPE svg PUBLIC "-//W3C//DTD SVG 20010904//EN"
 "http://www.w3.org/TR/2001/REC-SVG-20010904/DTD/svg10.dtd">
<svg version="1.0" xmlns="http://www.w3.org/2000/svg"
 width="1043.000000pt" height="1043.000000pt" viewBox="0 0 1043.000000 1043.000000"
 preserveAspectRatio="xMidYMid meet">

<g transform="translate(0.000000,1043.000000) scale(0.100000,-0.100000)"
fill="#000000" stroke="none">
<path d="M5005 10423 c-44 -1 -161 -10 -260 -19 -1059 -94 -2053 -507 -2875
-1193 -159 -132 -458 -428 -602 -595 -682 -789 -1102 -1748 -1229 -2806 -27
-224 -37 -724 -20 -962 66 -896 351 -1740 838 -2482 489 -745 1156 -1351 1943
-1764 544 -286 1158 -477 1774 -552 1601 -196 3184 348 4321 1485 893 894
1423 2054 1515 3320 13 180 13 550 0 730 -73 997 -427 1953 -1017 2743 -260
348 -594 692 -940 969 -704 563 -1575 941 -2468 1072 -194 28 -309 40 -530 51
-179 9 -261 10 -450 3z m895 -1723 c127 -16 223 -45 345 -104 130 -64 213
-125 313 -230 126 -133 217 -298 264 -480 19 -73 22 -115 25 -433 l5 -352 476
-3 477 -4 80 -27 c115 -38 199 -91 287 -179 61 -61 86 -96 123 -170 80 -162
75 -41 75 -1816 0 -1766 4 -1652 -70 -1807 -86 -177 -224 -298 -415 -363 l-80
-27 -2620 0 c-2509 0 -2623 1 -2685 18 -244 69 -428 253 -497 497 -17 62 -18
145 -18 1680 0 1530 1 1618 18 1680 55 196 187 358 362 444 141 70 139 70 663
74 l472 3 0 297 c0 402 20 523 116 715 161 318 473 540 826 586 95 13 1358 13
1458 1z"/>
<path d="M4500 7927 c-90 -25 -163 -88 -204 -176 -20 -43 -21 -66 -24 -348
l-3 -303 905 0 906 0 0 288 c0 229 -3 299 -15 340 -20 68 -96 151 -167 183
l-53 24 -650 2 c-493 2 -661 -1 -695 -10z"/>
</g>
</svg>
