<?xml version="1.0" standalone="no"?>
<!DOCTYPE svg PUBLIC "-//W3C//DTD SVG 20010904//EN"
 "http://www.w3.org/TR/2001/REC-SVG-20010904/DTD/svg10.dtd">
<svg version="1.0" xmlns="http://www.w3.org/2000/svg"
 width="1042.000000pt" height="1043.000000pt" viewBox="0 0 1042.000000 1043.000000"
 preserveAspectRatio="xMidYMid meet">

<g transform="translate(0.000000,1043.000000) scale(0.100000,-0.100000)"
fill="#000000" stroke="none">
<path d="M4931 10419 c-1112 -58 -2198 -484 -3056 -1201 -1005 -839 -1665
-2039 -1829 -3328 -42 -322 -53 -799 -27 -1095 97 -1105 509 -2100 1219 -2945
136 -161 462 -486 622 -620 1262 -1052 2915 -1451 4512 -1090 399 91 746 215
1133 405 546 268 946 555 1386 994 230 231 316 329 494 566 538 716 885 1581
995 2479 178 1458 -259 2906 -1216 4026 -218 256 -560 575 -839 783 -665 497
-1433 825 -2252 961 -384 65 -751 85 -1142 65z m-883 -1985 c78 -32 121 -97
122 -184 l1 -35 19 37 c24 45 63 73 122 88 41 10 53 9 119 -15 41 -15 107 -37
148 -51 109 -35 139 -71 151 -179 l6 -60 23 52 c13 29 41 69 62 88 l39 35 161
0 c170 0 193 -5 235 -52 28 -30 54 -82 54 -108 0 -11 5 -20 10 -20 6 0 10 17
10 38 0 50 37 122 77 148 33 22 135 39 298 51 63 4 88 2 111 -10 45 -23 91
-81 105 -129 l11 -43 13 48 c16 64 42 97 96 125 38 20 53 23 114 18 176 -14
362 -84 414 -156 41 -57 49 -115 23 -174 -12 -25 -20 -46 -19 -46 1 0 24 11
51 25 55 28 73 30 131 14 64 -18 123 -87 195 -233 78 -157 88 -218 47 -288
-15 -25 -42 -53 -66 -66 -23 -13 -41 -27 -41 -31 0 -30 15 -71 25 -71 7 0 48
17 91 37 72 34 87 37 165 38 78 0 90 -3 135 -30 42 -26 66 -56 176 -222 l128
-193 122 0 c582 0 1116 -341 1373 -875 237 -493 195 -1065 -112 -1529 -90
-137 -282 -329 -418 -419 -440 -291 -969 -344 -1454 -146 -344 141 -639 418
-801 754 -269 558 -179 1225 226 1689 38 43 73 84 79 92 6 9 -7 78 -43 217
-56 222 -59 248 -37 323 19 64 60 113 126 148 30 16 55 30 56 30 1 1 -4 24
-11 51 -12 49 -13 50 -52 53 -88 5 -125 14 -153 38 -37 31 -141 238 -141 280
0 18 15 61 33 98 l33 66 -33 -26 c-18 -14 -57 -36 -87 -50 -50 -23 -55 -23
-95 -9 -24 8 -72 20 -107 26 -35 6 -75 20 -88 30 -29 23 -76 113 -76 146 0 13
-4 23 -10 23 -5 0 -10 -14 -10 -30 0 -60 -40 -129 -90 -155 -34 -18 -309 -49
-354 -41 -19 4 -49 18 -66 33 -32 26 -70 91 -70 118 0 35 -18 11 -22 -30 -7
-57 -46 -117 -91 -138 -46 -22 -207 -31 -324 -19 -76 8 -99 14 -128 36 -43 33
-63 71 -72 132 l-6 47 -20 -39 c-39 -79 -91 -114 -167 -114 -73 0 -321 89
-367 132 -28 26 -47 107 -40 166 l6 47 -20 -40 c-43 -82 -119 -141 -168 -132
-14 3 -63 1 -109 -5 -80 -9 -84 -9 -127 16 -24 15 -58 47 -75 71 -17 25 -33
45 -35 45 -2 0 1 -15 6 -32 13 -47 11 -114 -5 -152 -9 -22 -42 -55 -91 -92
-42 -33 -93 -72 -113 -87 -33 -26 -43 -28 -92 -25 -30 3 -73 13 -95 23 -22 11
-44 21 -50 23 -5 3 0 -6 12 -19 31 -35 63 -108 63 -149 0 -26 -21 -68 -78
-164 -96 -158 -111 -169 -224 -164 -43 2 -78 3 -78 2 0 -1 18 -13 39 -27 26
-17 48 -45 66 -82 l28 -56 -18 -62 c-10 -34 -28 -100 -41 -146 -13 -46 -30
-94 -39 -107 -21 -32 -81 -61 -144 -70 l-51 -7 47 -22 c53 -25 97 -66 112
-106 9 -25 6 -265 -5 -316 -7 -38 -62 -91 -112 -109 -26 -10 -50 -20 -54 -24
-4 -3 -3 -34 3 -68 l11 -62 92 0 c110 0 152 -11 208 -53 78 -60 93 -97 133
-337 20 -118 40 -218 43 -221 4 -4 43 -22 87 -41 506 -216 862 -709 915 -1268
77 -795 -461 -1509 -1255 -1666 -129 -26 -423 -26 -560 0 -319 59 -577 196
-811 430 -145 146 -233 268 -308 426 -100 215 -136 366 -143 612 -6 195 3 284
44 443 69 265 192 483 387 683 151 155 304 263 488 342 40 18 76 35 81 39 4 4
23 99 42 212 21 123 44 223 57 253 42 91 137 146 254 146 44 0 52 3 49 18 -2
9 -7 34 -10 55 -5 34 -9 37 -38 37 -66 1 -144 53 -166 113 -6 16 -11 101 -11
195 0 141 3 173 19 207 27 60 63 87 138 106 64 16 66 17 35 24 -46 10 -107 71
-123 123 -14 48 -2 113 53 292 24 74 38 102 67 131 46 46 108 65 169 51 50
-11 53 -4 9 23 -46 29 -77 89 -77 150 0 39 9 65 39 120 98 180 163 259 224
276 46 12 105 6 148 -16 l28 -15 -30 56 c-31 60 -35 88 -19 146 21 73 278 280
365 294 64 9 117 -10 164 -61 l41 -45 -6 40 c-13 82 26 159 99 197 77 39 372
58 445 27z"/>
<path d="M3813 8253 c-29 -2 -53 -6 -53 -8 0 -2 14 -17 30 -33 38 -38 41 -95
8 -138 -19 -24 -20 -27 -4 -21 10 4 45 7 79 7 58 0 60 1 40 15 -52 36 -48 141
6 170 l26 14 -40 -1 c-22 -1 -64 -3 -92 -5z"/>
<path d="M4398 8119 c6 -7 12 -34 12 -60 0 -36 -5 -52 -26 -72 -14 -14 -35
-27 -47 -29 -16 -3 -7 -9 35 -25 31 -13 69 -25 82 -29 l25 -6 -16 32 c-26 54
8 132 62 142 13 2 -2 11 -45 27 -101 37 -97 36 -82 20z"/>
<path d="M6200 8053 c32 -41 27 -98 -13 -138 l-32 -32 55 -12 c30 -7 61 -15
68 -18 11 -4 12 -1 3 15 -31 58 1 147 57 154 l27 4 -25 11 c-14 6 -55 17 -92
26 l-68 15 20 -25z"/>
<path d="M5608 8063 c-27 -2 -48 -7 -48 -10 0 -3 11 -18 25 -35 32 -38 34 -94
4 -132 l-22 -28 49 7 c27 3 64 8 82 11 l32 5 -30 25 c-26 22 -30 33 -30 73 0
34 6 53 20 69 l21 22 -28 -2 c-15 -1 -49 -3 -75 -5z"/>
<path d="M3225 8003 l-59 -48 38 -6 c51 -8 79 -39 86 -93 l5 -45 53 41 52 41
-39 18 c-46 20 -75 67 -69 110 3 16 2 29 -1 29 -3 0 -33 -21 -66 -47z"/>
<path d="M4975 7989 c19 -19 25 -36 25 -70 0 -47 -11 -69 -45 -87 -16 -9 0
-11 72 -12 l91 0 -29 29 c-36 36 -40 95 -9 134 l20 25 -74 4 -75 3 24 -26z"/>
<path d="M6730 7669 c0 -11 -14 -34 -30 -51 -27 -27 -36 -30 -80 -26 -28 1
-50 3 -50 3 0 0 16 -31 35 -70 21 -42 35 -61 35 -48 0 12 14 35 31 52 32 33
81 41 120 21 10 -6 19 -8 19 -5 0 10 -70 145 -75 145 -3 0 -5 -9 -5 -21z"/>
<path d="M2812 7527 c-23 -36 -42 -69 -42 -72 0 -2 12 0 26 6 52 19 117 -19
133 -76 7 -27 8 -27 44 34 20 34 37 63 37 65 0 1 -15 0 -34 -2 -33 -4 -88 17
-102 40 -4 6 -10 25 -13 42 l-7 30 -42 -67z"/>
<path d="M2555 6954 c-10 -38 -20 -76 -23 -84 -4 -11 1 -9 17 5 45 40 144 13
158 -44 5 -22 10 -15 29 49 23 75 24 94 2 72 -24 -24 -138 -2 -138 26 0 5 -6
16 -13 26 -12 16 -15 11 -32 -50z"/>
<path d="M7587 6469 c-252 -27 -493 -143 -678 -328 -389 -389 -446 -989 -136
-1445 53 -79 175 -205 256 -267 228 -171 553 -257 826 -219 435 62 793 356
930 764 46 138 58 212 58 366 0 155 -12 228 -59 368 -138 412 -523 716 -965
762 -111 11 -119 11 -232 -1z"/>
<path d="M2450 6311 l0 -79 30 30 c28 28 36 30 78 25 34 -4 53 -12 69 -32 l23
-26 0 82 0 82 -25 -23 c-34 -32 -105 -33 -138 -2 -13 12 -26 22 -30 22 -4 0
-7 -36 -7 -79z"/>
<path d="M2422 4946 c-409 -78 -745 -369 -878 -760 -78 -227 -77 -496 0 -724
100 -293 316 -533 601 -668 140 -66 261 -95 430 -101 334 -12 617 99 851 334
442 444 441 1155 -2 1598 -145 145 -329 251 -521 302 -122 31 -363 41 -481 19z"/>
</g>
</svg>
