<?xml version="1.0" standalone="no"?>
<!DOCTYPE svg PUBLIC "-//W3C//DTD SVG 20010904//EN"
 "http://www.w3.org/TR/2001/REC-SVG-20010904/DTD/svg10.dtd">
<svg version="1.0" xmlns="http://www.w3.org/2000/svg"
 width="1043.000000pt" height="1043.000000pt" viewBox="0 0 1043.000000 1043.000000"
 preserveAspectRatio="xMidYMid meet">
<metadata>
Created by potrace 1.16, written by Peter Selinger 2001-2019
</metadata>
<g transform="translate(0.000000,1043.000000) scale(0.100000,-0.100000)"
fill="#000000" stroke="none">
<path d="M4880 10420 c-1049 -76 -1984 -424 -2808 -1044 -368 -278 -742 -651
-1015 -1013 -961 -1278 -1285 -2892 -891 -4445 372 -1469 1391 -2719 2759
-3387 981 -479 2074 -637 3165 -455 807 134 1575 462 2235 954 215 160 370
294 575 500 429 428 750 877 1011 1415 803 1656 664 3644 -361 5172 -198 295
-379 513 -649 784 -430 429 -840 724 -1376 989 -575 284 -1147 448 -1805 515
-184 19 -663 27 -840 15z m3251 -2827 c80 -39 150 -111 187 -191 l27 -57 5
-590 5 -590 170 159 c94 88 179 167 190 178 19 18 18 19 -80 118 -54 55 -97
101 -94 103 6 6 902 238 904 235 1 -2 -54 -207 -123 -456 l-126 -453 -107 107
-108 108 -123 -116 c-68 -63 -208 -195 -313 -292 l-190 -177 -5 -1367 -5
-1367 -27 -57 c-37 -80 -107 -152 -187 -191 l-66 -32 -3010 0 -3010 0 -66 32
c-80 39 -150 111 -187 191 l-27 57 0 2200 0 2200 27 57 c47 100 138 181 241
214 34 10 580 12 3037 11 l2995 -2 66 -32z"/>
<path d="M2077 7549 c-95 -22 -173 -87 -216 -178 l-26 -56 0 -2170 0 -2170 26
-56 c33 -71 87 -125 158 -158 l56 -26 2980 0 2980 0 56 26 c71 33 125 87 158
158 l26 56 3 1314 c2 1251 2 1313 -15 1300 -21 -17 -1214 -1128 -1294 -1206
l-55 -54 -291 668 c-161 367 -295 668 -300 670 -4 1 -294 -327 -643 -728 -349
-401 -643 -737 -652 -745 -16 -15 -44 38 -401 751 l-383 768 -875 -828 c-481
-455 -894 -846 -917 -869 l-44 -41 -119 125 c-65 69 -119 128 -119 132 0 5
1246 1189 2122 2016 l57 54 373 -746 373 -746 661 758 c363 416 664 756 669
755 5 0 145 -312 310 -692 165 -380 303 -689 307 -688 3 1 283 261 622 577
l616 575 -2 610 -3 610 -26 55 c-33 70 -89 126 -159 159 l-55 26 -2960 2
c-1704 0 -2976 -3 -2998 -8z"/>
</g>
</svg>
