<?xml version="1.0" standalone="no"?>
<!DOCTYPE svg PUBLIC "-//W3C//DTD SVG 20010904//EN"
 "http://www.w3.org/TR/2001/REC-SVG-20010904/DTD/svg10.dtd">
<svg version="1.0" xmlns="http://www.w3.org/2000/svg"
 width="1043.000000pt" height="1043.000000pt" viewBox="0 0 1043.000000 1043.000000"
 preserveAspectRatio="xMidYMid meet">

<g transform="translate(0.000000,1043.000000) scale(0.100000,-0.100000)"
fill="#000000" stroke="none">
<path d="M4895 10413 c-403 -32 -643 -70 -980 -155 -637 -161 -1276 -467
-1811 -866 -207 -154 -362 -289 -569 -497 -321 -320 -556 -618 -777 -983 -359
-594 -602 -1271 -697 -1942 -43 -302 -46 -358 -46 -760 0 -413 7 -516 56 -820
150 -942 561 -1830 1187 -2565 119 -140 464 -482 602 -596 846 -704 1826
-1109 2915 -1204 198 -17 630 -20 826 -5 1007 78 1953 434 2752 1037 270 204
615 531 829 783 733 869 1149 1896 1229 3035 15 211 6 674 -16 875 -132 1212
-648 2294 -1499 3146 -646 645 -1432 1103 -2311 1344 -300 82 -675 145 -1005
170 -122 9 -585 11 -685 3z m305 -3014 c96 -33 2309 -1045 2333 -1067 16 -16
27 -36 27 -52 0 -16 -11 -37 -27 -52 -17 -16 -489 -236 -1177 -549 -1272 -577
-1214 -555 -1369 -532 -65 9 -205 70 -1223 532 -688 313 -1160 533 -1177 549
-38 36 -36 74 6 107 17 14 522 249 1122 521 1222 555 1193 542 1249 554 52 11
190 5 236 -11z m-1106 -2091 l841 -383 125 0 125 0 842 383 c463 210 845 382
848 382 3 0 5 -343 5 -763 0 -848 3 -805 -68 -942 -47 -89 -176 -220 -293
-298 -665 -440 -1938 -490 -2724 -107 -160 78 -263 148 -360 246 -85 85 -136
161 -169 253 -20 54 -21 78 -24 834 -1 427 1 777 4 777 4 0 385 -172 848 -382z"/>
</g>
</svg>
