<?xml version="1.0" standalone="no"?>
<!DOCTYPE svg PUBLIC "-//W3C//DTD SVG 20010904//EN"
 "http://www.w3.org/TR/2001/REC-SVG-20010904/DTD/svg10.dtd">
<svg version="1.0" xmlns="http://www.w3.org/2000/svg"
 width="1042.000000pt" height="1043.000000pt" viewBox="0 0 1042.000000 1043.000000"
 preserveAspectRatio="xMidYMid meet">

<g transform="translate(0.000000,1043.000000) scale(0.100000,-0.100000)"
fill="#000000" stroke="none">
<path d="M5055 10423 c-1343 -45 -2580 -580 -3525 -1523 -865 -863 -1380
-1956 -1506 -3200 -21 -204 -24 -722 -6 -920 94 -998 439 -1906 1017 -2675
178 -237 264 -335 494 -566 447 -446 848 -733 1406 -1005 717 -349 1475 -524
2275 -524 798 0 1556 174 2270 521 405 197 729 406 1075 693 146 121 520 493
634 631 709 853 1109 1820 1212 2925 19 199 16 717 -5 920 -127 1246 -641
2337 -1506 3200 -811 810 -1863 1331 -2985 1479 -250 33 -619 52 -850 44z
m1394 -2729 c379 -111 392 -114 481 -114 87 0 136 12 280 69 58 22 110 41 117
41 14 0 35 -34 27 -43 -3 -3 27 -123 66 -267 39 -144 70 -263 68 -264 -2 -2
-91 -38 -198 -82 l-195 -79 -660 -3 c-734 -4 -707 -6 -739 63 -20 41 -20 56
-2 100 24 57 36 60 312 65 l250 5 75 37 c42 21 93 57 118 82 41 41 44 49 35
73 -14 41 -57 53 -92 25 -83 -65 -133 -95 -143 -85 -5 5 -19 47 -30 93 -11 47
-27 92 -36 102 -19 21 -52 23 -78 5 -16 -12 -17 -23 -11 -80 3 -37 4 -67 0
-67 -4 0 -28 15 -54 34 -26 19 -62 42 -80 51 -28 15 -34 15 -55 1 -47 -31 -43
-56 16 -108 53 -47 54 -48 25 -48 -23 0 -48 19 -127 97 -55 53 -99 104 -99
114 0 23 222 226 273 250 78 35 132 27 456 -67z m-816 -211 l126 -138 -27 -14
c-54 -28 -91 -64 -112 -107 -19 -38 -21 -58 -18 -147 3 -93 6 -108 31 -145 16
-24 49 -54 80 -72 l52 -30 255 0 255 0 72 -72 c40 -40 73 -77 73 -83 0 -5
-227 -237 -505 -515 l-505 -505 -555 -3 c-431 -2 -561 0 -584 10 -34 15 -361
349 -361 370 0 20 1562 1589 1581 1588 10 0 73 -62 142 -137z m1185 -2541 c9
-7 12 -60 10 -233 l-3 -224 -1985 0 -1985 0 -3 220 c-1 121 0 225 2 232 4 11
390 13 1978 13 1085 0 1979 -4 1986 -8z"/>
</g>
</svg>
