<?xml version="1.0" standalone="no"?>
<!DOCTYPE svg PUBLIC "-//W3C//DTD SVG 20010904//EN"
 "http://www.w3.org/TR/2001/REC-SVG-20010904/DTD/svg10.dtd">
<svg version="1.0" xmlns="http://www.w3.org/2000/svg"
 width="1042.000000pt" height="1043.000000pt" viewBox="0 0 1042.000000 1043.000000"
 preserveAspectRatio="xMidYMid meet">

<g transform="translate(0.000000,1043.000000) scale(0.100000,-0.100000)"
fill="#000000" stroke="none">
<path d="M5060 10424 c-982 -34 -1899 -322 -2702 -850 -1037 -681 -1795 -1699
-2143 -2879 -431 -1465 -200 -3047 632 -4324 306 -469 726 -924 1183 -1279
897 -698 2027 -1082 3180 -1082 798 0 1555 174 2270 521 557 271 965 563 1411
1008 230 231 316 329 494 566 790 1050 1150 2387 999 3705 -257 2246 -1936
4071 -4154 4514 -362 73 -821 112 -1170 100z m-1958 -2242 c370 -491 486
-1067 317 -1576 -85 -256 -257 -516 -489 -739 -146 -141 -159 -180 -121 -355
15 -64 61 -362 61 -389 0 -2 26 -3 58 -3 79 0 243 -26 327 -51 39 -11 108 -41
155 -65 190 -98 312 -239 379 -441 166 -494 -5 -928 -478 -1212 -45 -27 -86
-51 -90 -53 -5 -2 6 -84 25 -183 61 -330 66 -496 23 -709 -83 -407 -329 -610
-686 -566 -288 36 -505 208 -574 455 -22 78 -18 217 9 301 42 137 147 242 258
259 84 12 241 -52 319 -130 60 -59 79 -125 73 -254 -3 -80 -8 -106 -31 -153
-33 -67 -94 -125 -187 -176 -36 -19 -67 -37 -70 -40 -8 -7 61 -60 108 -82 70
-33 145 -43 221 -30 191 33 358 220 407 455 34 161 19 423 -39 710 l-22 110
-205 7 c-331 12 -505 46 -689 134 -125 60 -198 113 -301 220 -167 174 -276
385 -350 679 -90 355 -44 692 136 994 84 141 235 316 597 687 110 113 189 203
193 218 9 38 2 84 -50 311 -71 308 -81 389 -80 625 0 172 4 221 22 307 38 175
109 344 197 468 52 73 180 197 257 247 61 41 215 118 234 118 7 0 46 -44 86
-98z m2548 -632 c12 -7 16 -41 18 -180 2 -93 7 -170 11 -170 5 0 57 18 116 40
59 22 112 40 116 40 5 0 9 -70 9 -155 0 -151 1 -157 24 -180 13 -13 43 -29 67
-35 471 -121 891 -316 1281 -595 62 -44 116 -81 120 -83 4 -2 8 172 8 387 0
381 0 391 20 391 35 0 40 -56 40 -445 0 -437 -17 -379 168 -559 104 -102 122
-116 122 -95 0 53 14 59 240 103 102 20 195 39 208 42 l22 6 0 -255 c0 -255 0
-256 -24 -284 -20 -23 -31 -27 -66 -26 -23 1 -44 4 -47 6 -7 7 22 71 38 83 8
6 26 14 42 18 l27 6 0 134 0 133 -182 -37 c-101 -20 -182 -41 -181 -46 2 -11
313 -579 337 -615 13 -20 38 -33 99 -53 307 -95 398 -350 240 -669 -40 -81
-60 -106 -162 -208 -64 -63 -126 -131 -138 -150 -11 -18 -53 -108 -91 -199
-39 -91 -84 -194 -101 -230 -38 -79 -39 -125 -6 -190 15 -30 28 -75 31 -112
l6 -63 -54 94 c-29 52 -58 96 -65 98 -8 3 -12 -45 -15 -179 -3 -167 -5 -187
-26 -225 -29 -55 -53 -67 -115 -60 -27 4 -52 8 -54 11 -8 8 50 107 66 115 9 5
33 11 54 15 l37 7 0 123 0 122 -275 -276 c-152 -152 -282 -286 -290 -297 -8
-11 -24 -46 -35 -76 -27 -71 -93 -140 -168 -175 -50 -23 -70 -27 -162 -27
-101 -1 -108 -2 -176 -37 -85 -44 -295 -133 -416 -177 -384 -140 -804 -223
-1310 -258 l-88 -6 0 -53 c0 -126 -73 -192 -175 -157 -49 16 -53 26 -31 78 17
39 57 67 122 85 106 30 32 48 -253 61 -145 6 -256 16 -268 23 -15 8 45 12 265
16 157 3 291 9 298 13 13 9 16 83 6 136 l-6 31 -296 2 c-225 2 -296 6 -300 16
-3 9 61 12 297 12 l301 0 0 100 0 100 -221 0 -222 0 -101 -69 c-131 -88 -176
-111 -225 -111 -66 0 -131 70 -131 142 0 98 162 223 321 249 35 6 65 12 68 15
2 2 6 29 9 59 5 61 9 57 -93 74 l-50 9 42 1 c29 1 51 9 70 25 l28 24 3 573 c1
316 6 577 11 582 5 5 17 -15 26 -45 24 -72 154 -331 217 -431 28 -45 64 -108
79 -140 32 -69 53 -179 41 -221 -8 -29 -13 -23 -142 167 -73 108 -137 197
-142 197 -37 0 22 -128 153 -330 93 -143 121 -208 127 -292 4 -57 7 -68 21
-64 9 3 36 8 61 12 88 13 285 74 304 94 19 19 20 33 17 328 -3 315 0 357 25
366 41 16 43 3 46 -217 l3 -212 72 -5 c72 -5 73 -6 126 -58 l53 -53 80 52 c94
62 224 169 259 215 l25 33 0 255 0 254 68 15 c37 9 93 20 125 26 78 14 95 25
103 67 11 61 -3 254 -25 337 -43 163 -141 332 -277 477 -81 85 -369 310 -398
310 -13 0 -16 -14 -16 -79 0 -79 0 -80 -36 -109 -20 -17 -51 -38 -69 -48 -33
-17 -33 -17 -64 9 l-31 26 55 48 c31 26 68 50 83 53 22 4 28 11 30 39 4 43
-14 86 -44 105 -28 19 -154 70 -254 102 -126 41 -218 62 -395 89 -240 36 -262
43 -147 44 l92 1 0 69 c0 37 3 89 6 115 l7 46 -246 0 c-135 0 -248 4 -251 8
-5 9 211 22 365 22 129 0 133 5 137 162 3 101 1 127 -11 140 -12 11 -52 17
-168 22 -224 10 -222 25 4 26 103 0 187 3 188 8 0 4 6 89 12 190 l12 182 -212
0 c-129 0 -213 4 -213 10 0 13 38 18 245 30 99 6 180 12 181 13 3 3 24 342 24
381 l0 36 -212 1 c-231 1 -238 8 -34 33 193 24 348 28 541 16 167 -10 467 -43
508 -56 16 -5 17 12 17 265 0 247 2 271 18 280 21 13 23 13 42 1z m-1418 -102
l3 -103 38 3 c31 3 37 0 37 -16 0 -10 3 -40 6 -65 6 -44 5 -48 -35 -88 -37
-39 -41 -47 -41 -94 0 -29 3 -73 6 -99 6 -42 9 -46 34 -46 26 0 28 -3 33 -52
6 -64 -10 -107 -48 -132 l-28 -18 5 -99 c6 -111 -5 -145 -37 -119 -14 11 -16
30 -13 117 2 57 1 103 -1 103 -3 0 -42 -12 -88 -27 l-83 -27 0 -118 c0 -69 -4
-118 -10 -118 -20 0 -35 48 -40 125 l-5 80 -32 0 c-31 0 -32 1 -39 52 -9 72 1
100 41 125 l35 20 0 104 0 104 -34 0 c-31 0 -34 3 -40 38 -12 75 -8 92 34 133
l40 40 0 107 c0 112 7 139 34 129 13 -5 16 -25 16 -122 0 -63 3 -115 8 -115
17 0 137 42 149 52 9 7 13 41 13 119 0 102 1 109 20 109 18 0 20 -8 22 -102z
m2938 -505 c0 -37 -25 -13 -75 72 -31 52 -60 95 -66 95 -5 0 -9 -80 -9 -196 0
-125 -4 -203 -11 -217 -21 -40 -52 -67 -86 -73 -71 -13 -112 18 -92 73 8 23
27 38 89 68 l80 39 0 281 1 280 84 -205 c47 -113 85 -210 85 -217z m-3276
-1054 c-11 -18 -22 -6 -65 71 -24 44 -49 80 -56 80 -8 0 -12 -51 -15 -179 -3
-203 -10 -223 -82 -250 -33 -13 -41 -12 -72 2 -63 31 -33 90 66 127 l60 22 0
277 1 276 84 -209 c46 -115 82 -213 79 -217z m4845 -864 c40 -45 40 -76 0
-109 -17 -14 -35 -26 -41 -26 -5 0 -25 15 -44 34 -37 37 -37 42 1 104 25 41
45 41 84 -3z m19 -400 c44 -27 42 -55 -6 -89 -47 -32 -72 -33 -99 -3 -36 40
-36 56 1 93 37 37 42 37 104 -1z"/>
<path d="M2930 7847 c-272 -203 -392 -437 -376 -732 6 -99 65 -499 98 -664
l13 -64 81 61 c189 143 335 340 407 552 47 138 62 233 61 395 0 135 -3 158
-27 230 -30 90 -85 188 -137 247 l-35 39 -85 -64z"/>
<path d="M2412 5353 c-92 -93 -188 -196 -212 -230 -160 -224 -251 -446 -280
-689 -25 -210 43 -442 180 -611 168 -208 479 -338 790 -331 l126 3 -112 545
c-124 610 -105 560 -194 515 -114 -58 -202 -178 -236 -321 -38 -163 19 -326
176 -497 29 -32 50 -60 48 -63 -3 -2 -38 0 -79 6 -152 21 -293 119 -358 248
-57 114 -75 200 -76 362 0 125 3 155 23 220 72 228 212 393 480 565 6 5 -93
445 -100 445 -5 0 -84 -75 -176 -167z"/>
<path d="M2952 4618 c3 -7 51 -257 108 -555 l104 -542 50 36 c178 127 281 301
305 518 32 277 -95 475 -344 540 -74 19 -229 21 -223 3z"/>
<path d="M5757 7068 c-118 -45 -116 -77 4 -97 40 -6 74 -10 76 -8 2 3 3 34 1
70 l-3 64 -78 -29z"/>
<path d="M5026 6998 c-18 -14 -22 -48 -39 -344 l-5 -81 81 -6 c45 -3 82 -5 83
-4 3 5 25 430 22 432 -2 2 -30 6 -63 10 -44 5 -65 3 -79 -7z"/>
<path d="M5217 6923 c-4 -43 -9 -141 -13 -218 l-7 -140 299 -64 c165 -36 309
-66 322 -69 22 -4 22 -4 22 126 l0 130 -115 -44 c-63 -24 -119 -44 -125 -44
-6 0 -10 55 -10 154 0 192 1 189 -125 210 -49 8 -117 18 -150 21 -33 4 -67 9
-76 11 -13 4 -17 -9 -22 -73z"/>
<path d="M5670 6845 c0 -41 2 -75 5 -75 2 0 41 23 85 51 l82 52 -74 23 c-40
13 -79 24 -85 24 -9 0 -13 -22 -13 -75z"/>
<path d="M5920 6652 c0 -204 2 -232 18 -251 9 -11 85 -46 172 -80 85 -32 163
-62 173 -66 16 -7 17 8 17 237 0 181 -3 249 -13 261 -7 11 -77 38 -167 66 -85
26 -165 51 -177 55 l-23 7 0 -229z"/>
<path d="M6316 6732 c-6 -10 115 -220 227 -391 57 -88 93 -154 102 -190 9 -31
19 -67 23 -81 4 -14 61 -70 137 -133 72 -60 182 -153 246 -208 142 -120 151
-125 217 -110 27 5 73 8 101 4 l52 -6 -3 258 -3 257 -50 45 c-174 158 -556
381 -875 513 -118 48 -163 59 -174 42z"/>
<path d="M4984 6519 c-8 -14 -23 -197 -23 -296 -1 -86 6 -93 97 -93 l60 0 6
93 c13 187 12 265 -4 280 -20 19 -126 31 -136 16z"/>
<path d="M5190 6478 c0 -13 -5 -89 -10 -170 -15 -211 -2 -232 124 -203 82 18
97 14 143 -32 24 -23 57 -40 121 -60 48 -14 229 -91 402 -170 173 -79 318
-143 322 -143 12 0 10 434 -2 464 -17 46 -87 75 -360 151 -52 14 -167 55 -256
91 -89 35 -163 64 -166 64 -3 0 -13 -20 -22 -45 -21 -54 -48 -75 -98 -75 -57
0 -89 34 -96 98 l-5 52 -48 0 c-44 0 -49 -2 -49 -22z"/>
<path d="M6406 6310 c14 -51 54 -118 89 -149 32 -28 74 -51 91 -51 3 0 -30 41
-73 91 -43 50 -86 100 -96 112 l-18 22 7 -25z"/>
<path d="M4945 5981 c-3 -69 -7 -144 -8 -166 l-2 -39 65 -13 c36 -7 72 -12 81
-13 13 0 17 25 26 163 6 89 9 163 8 165 -2 2 -39 9 -83 16 l-80 13 -7 -126z"/>
<path d="M7485 6068 c-2 -7 -6 -141 -7 -298 -3 -311 -7 -331 -65 -393 l-27
-27 23 -38 c50 -83 134 -269 171 -380 62 -186 83 -332 77 -532 -3 -96 -12
-196 -22 -240 -27 -124 -86 -288 -141 -395 -28 -55 -74 -144 -102 -198 -74
-144 -92 -231 -92 -451 0 -166 1 -176 19 -176 20 0 382 363 478 479 30 36 68
94 85 129 26 52 31 74 31 134 l0 73 20 -53 c11 -29 23 -49 27 -45 9 10 181
406 177 409 -1 1 -60 -20 -130 -48 -105 -41 -131 -47 -143 -37 -13 10 -11 16
13 42 15 16 71 58 123 92 112 73 147 106 171 160 24 55 39 174 39 313 0 158
-36 405 -63 440 -26 32 -135 -6 -162 -57 -14 -27 -13 -30 8 -43 12 -8 40 -19
63 -26 22 -6 51 -23 65 -38 20 -21 24 -36 24 -88 0 -105 -38 -146 -135 -146
-86 0 -142 43 -166 128 -42 142 44 292 204 358 37 15 71 31 75 35 13 10 -295
577 -310 572 -9 -4 -13 -35 -13 -110 0 -114 -8 -139 -58 -187 -24 -22 -36 -27
-57 -22 -60 15 -34 75 45 103 l50 18 0 98 c0 109 -10 142 -63 211 -63 84 -227
248 -232 234z"/>
<path d="M5179 6063 c-13 -3 -17 -23 -23 -95 -8 -124 -7 -210 3 -227 7 -11
247 -91 273 -91 4 0 8 15 10 33 l3 32 30 -47 c25 -40 48 -58 145 -113 63 -37
174 -96 245 -131 l130 -66 85 22 c47 12 115 30 153 41 l67 20 0 70 c0 79 -15
117 -57 147 -55 38 -718 332 -748 332 -17 0 -46 -13 -69 -30 -22 -17 -52 -30
-66 -30 -39 0 -78 35 -90 81 -8 28 -19 43 -36 49 -26 10 -29 10 -55 3z"/>
<path d="M6410 6050 c0 -24 42 -90 110 -175 110 -137 146 -225 133 -323 -7
-50 -16 -53 -34 -10 -44 108 -240 339 -260 307 -12 -19 -11 -115 2 -164 17
-63 52 -106 163 -198 279 -232 460 -529 530 -867 8 -41 20 -133 26 -205 6 -71
12 -130 13 -132 2 -1 36 4 179 31 l28 5 2 -392 3 -392 41 66 c104 164 184 361
224 550 27 129 37 349 22 480 -24 197 -94 411 -186 566 -74 123 -61 115 -141
87 -39 -13 -86 -24 -105 -24 -70 0 -140 69 -140 140 0 41 15 66 78 132 l45 46
-99 97 c-55 53 -134 124 -177 158 -83 66 -230 167 -235 162 -2 -2 4 -53 13
-115 9 -61 15 -116 13 -121 -2 -6 -53 59 -113 145 -98 138 -135 178 -135 146z
m971 -1209 c7 -18 5 -38 -7 -72 -15 -41 -16 -54 -5 -89 14 -47 9 -63 -9 -30
-11 21 -12 21 -54 -14 -52 -42 -69 -35 -25 10 31 32 31 32 14 62 -19 31 -19
33 16 166 l10 38 26 -23 c14 -13 29 -35 34 -48z"/>
<path d="M8010 5939 c-202 -43 -223 -48 -202 -56 24 -9 402 70 402 84 0 16 20
19 -200 -28z"/>
<path d="M4936 5732 c-3 -5 -11 -44 -18 -85 -13 -85 -3 -126 35 -146 20 -10
119 -32 124 -27 1 1 5 52 9 113 7 109 7 111 -17 126 -30 20 -124 33 -133 19z"/>
<path d="M5136 5623 c-11 -135 -9 -161 17 -177 18 -12 273 -116 284 -116 8 0
2 242 -8 263 -8 18 -36 31 -138 65 -70 23 -132 42 -137 42 -6 0 -14 -33 -18
-77z"/>
<path d="M5476 5591 c-4 -5 -7 -59 -9 -119 -2 -108 -1 -111 28 -153 21 -29 69
-69 143 -119 247 -165 402 -339 495 -554 54 -126 77 -229 85 -388 4 -75 10
-140 13 -143 11 -10 291 53 310 71 14 13 19 31 19 75 0 61 -4 67 -58 100 -46
27 -49 43 -16 91 42 60 39 124 -11 246 -63 155 -210 371 -267 391 -15 6 -42 6
-65 0 -104 -24 -186 -2 -218 60 -20 40 -20 46 15 120 17 35 29 65 28 66 -7 6
-477 265 -482 265 -3 0 -7 -4 -10 -9z"/>
<path d="M6356 5548 c-3 -13 -7 -81 -8 -153 -3 -121 -5 -133 -30 -177 -15 -25
-40 -55 -54 -65 l-26 -20 64 -79 c118 -146 191 -280 242 -443 26 -83 48 -114
73 -104 10 4 13 62 15 262 l1 256 9 -195 c5 -107 7 -240 6 -295 -3 -89 -6
-104 -28 -133 -22 -30 -25 -44 -26 -127 l-1 -94 31 6 c276 51 372 74 389 94
39 48 14 307 -48 496 -74 223 -188 397 -394 604 -80 80 -160 155 -178 167
l-32 23 -5 -23z"/>
<path d="M7270 5525 c0 -8 17 -38 37 -65 l38 -50 28 56 c16 31 27 57 25 59 -2
1 -31 5 -65 9 -54 6 -63 5 -63 -9z"/>
<path d="M7158 5466 c-44 -34 -76 -85 -64 -105 14 -22 67 -22 131 -1 36 12 65
24 65 27 0 5 -46 66 -80 106 -4 4 -27 -8 -52 -27z"/>
<path d="M8245 4948 c7 -76 35 -514 35 -542 0 -27 13 -12 45 51 82 164 85 367
8 483 -22 35 -67 70 -88 70 -3 0 -3 -28 0 -62z"/>
<path d="M7104 4063 c-26 -5 -59 -39 -69 -70 -6 -21 -3 -23 35 -23 65 0 129
20 150 48 34 42 27 52 -37 51 -32 -1 -68 -4 -79 -6z"/>
<path d="M6770 3991 c-102 -21 -195 -43 -206 -49 -19 -10 -50 -70 -41 -79 2
-2 96 15 208 38 187 37 206 43 232 70 31 33 35 60 10 58 -10 -1 -101 -18 -203
-38z"/>
<path d="M6410 3919 c-159 -30 -226 -51 -262 -82 -63 -54 -41 -61 102 -32 176
36 193 41 224 74 45 47 28 58 -64 40z"/>
<path d="M6006 3840 c-44 -8 -59 -25 -50 -60 8 -33 5 -32 55 -21 44 10 89 48
89 77 0 15 -29 17 -94 4z"/>
<path d="M7105 3750 c-71 -15 -142 -29 -158 -33 -20 -6 -42 -30 -83 -95 -89
-138 -173 -239 -296 -357 -124 -119 -238 -203 -389 -284 -140 -75 -173 -101
-204 -165 -23 -48 -27 -67 -26 -142 0 -48 2 -89 5 -91 14 -15 317 114 480 203
225 124 473 305 644 471 70 68 98 103 121 153 37 79 52 183 43 290 l-7 76
-130 -26z"/>
<path d="M6622 3654 c-117 -24 -219 -47 -228 -52 -28 -16 -386 -365 -416 -406
-27 -38 -28 -42 -28 -168 l0 -130 88 47 c100 54 260 157 347 224 80 61 243
220 309 300 61 75 156 210 156 223 0 10 22 14 -228 -38z"/>
<path d="M6125 3554 c-88 -18 -161 -33 -162 -34 -6 -1 -3 -290 3 -290 3 0 84
75 179 166 111 106 172 171 168 180 -6 17 3 19 -188 -22z"/>
<path d="M5696 3318 c-174 -122 -190 -136 -201 -173 -19 -65 -42 -101 -105
-166 -65 -66 -67 -66 80 -12 172 64 407 193 416 228 3 11 3 73 2 138 l-3 119
-189 -134z"/>
<path d="M7173 3283 c-112 -132 -354 -330 -551 -450 -125 -77 -384 -204 -527
-258 -125 -48 -140 -58 -171 -111 -46 -78 -128 -138 -223 -164 -62 -16 -112
-5 -161 37 -55 47 -96 51 -276 24 -78 -12 -164 -21 -192 -21 -28 0 -62 -4 -76
-10 -25 -9 -26 -13 -26 -82 0 -107 -4 -104 147 -90 659 65 1095 176 1563 398
138 66 156 81 165 142 8 55 34 108 67 139 35 33 125 70 198 82 36 6 80 14 98
17 l32 5 0 199 c0 116 -4 200 -9 200 -5 0 -31 -25 -58 -57z"/>
<path d="M4490 3145 c0 -229 -7 -220 148 -200 106 14 122 19 122 37 0 18 -244
347 -257 348 -10 0 -13 -43 -13 -185z"/>
<path d="M5303 3263 c-21 -4 -23 -10 -23 -73 0 -38 5 -72 10 -75 13 -8 67 25
99 59 21 22 23 29 13 51 -10 22 -51 47 -70 44 -4 -1 -17 -4 -29 -6z"/>
<path d="M5825 3103 c-91 -54 -288 -147 -400 -188 -215 -80 -549 -146 -815
-163 l-115 -7 -3 -84 -3 -84 33 7 c18 4 103 9 188 12 85 3 168 11 184 17 31
11 56 58 56 102 0 15 4 24 10 20 6 -3 10 -31 10 -61 0 -50 2 -54 24 -54 42 0
257 40 376 70 195 49 484 154 510 185 7 8 10 58 8 138 l-3 125 -60 -35z"/>
<path d="M5362 3117 c-50 -15 -82 -50 -82 -91 0 -19 4 -37 9 -40 7 -5 56 46
109 116 17 22 4 27 -36 15z"/>
<path d="M5167 3038 c-10 -5 -80 -25 -156 -43 -75 -19 -159 -43 -185 -55 -26
-11 -52 -17 -58 -14 -16 10 -246 -7 -261 -20 -25 -19 -30 -90 -9 -116 l18 -22
249 31 c365 46 430 62 441 108 7 27 -4 131 -14 137 -4 2 -15 0 -25 -6z"/>
<path d="M5816 2795 c-178 -74 -463 -154 -680 -190 -104 -17 -143 -27 -153
-41 -8 -12 -13 -50 -13 -111 0 -92 0 -93 23 -88 12 3 125 21 251 40 127 20
236 40 242 46 7 6 24 30 38 53 32 54 87 103 145 129 35 16 68 21 133 21 l88 1
0 83 c0 45 -3 82 -7 82 -5 -1 -35 -12 -67 -25z"/>
<path d="M4878 2000 c-67 -20 -121 -71 -99 -93 16 -16 146 55 146 79 0 21 -12
25 -47 14z"/>
<path d="M4110 7120 c-81 -28 -90 -43 -90 -161 0 -54 2 -99 3 -99 13 0 125 43
144 55 22 15 23 22 23 120 0 78 -3 105 -12 105 -7 -1 -38 -9 -68 -20z"/>
</g>
</svg>
