<?xml version="1.0" standalone="no"?>
<!DOCTYPE svg PUBLIC "-//W3C//DTD SVG 20010904//EN"
 "http://www.w3.org/TR/2001/REC-SVG-20010904/DTD/svg10.dtd">
<svg version="1.0" xmlns="http://www.w3.org/2000/svg"
 width="1042.000000pt" height="1043.000000pt" viewBox="0 0 1042.000000 1043.000000"
 preserveAspectRatio="xMidYMid meet">

<g transform="translate(0.000000,1043.000000) scale(0.100000,-0.100000)"
fill="#000000" stroke="none">
<path d="M4815 10409 c-2093 -160 -3886 -1561 -4550 -3554 -707 -2126 31
-4473 1830 -5815 661 -494 1427 -822 2235 -959 336 -57 459 -66 875 -66 387 0
467 5 755 46 858 122 1695 472 2390 1000 371 282 748 660 1021 1023 1009 1341
1309 3084 807 4691 -203 651 -535 1256 -989 1800 -125 149 -415 441 -579 583
-856 737 -1890 1165 -3029 1252 -156 12 -605 11 -766 -1z m-527 -2998 c108
-65 297 -173 420 -240 398 -217 459 -263 502 -380 23 -60 99 -501 204 -1181
37 -234 75 -463 86 -509 46 -186 44 -387 -5 -604 -13 -59 -53 -203 -89 -320
-36 -117 -106 -363 -156 -547 -50 -184 -100 -363 -111 -397 -35 -107 -92 -165
-184 -187 -16 -4 -91 -11 -165 -16 -129 -8 -225 -24 -693 -116 -99 -20 -180
-34 -181 -32 -1 2 -43 225 -92 496 -82 459 -96 524 -107 512 -2 -3 -59 -230
-126 -504 -66 -275 -122 -501 -124 -502 -1 -2 -50 8 -107 22 -448 106 -757
174 -794 174 -33 0 -64 -11 -120 -41 -87 -47 -167 -60 -231 -39 -53 18 -119
81 -144 140 -19 43 -192 932 -261 1340 -12 69 -35 177 -52 240 -23 90 -31 144
-35 251 -7 159 3 254 57 554 21 121 75 445 120 720 45 275 88 521 96 547 27
85 85 135 256 225 84 44 252 139 373 210 267 158 496 286 502 280 2 -3 49
-238 103 -523 55 -286 102 -529 105 -541 9 -37 33 -27 39 15 11 69 65 506 76
622 18 179 41 212 150 214 32 1 61 -1 64 -4 3 -3 15 -291 26 -640 12 -349 25
-639 30 -644 11 -11 -1 -58 196 797 92 400 169 727 172 727 2 0 92 -53 200
-119z m2447 -103 c25 -23 25 -24 28 -193 l2 -170 45 -84 c59 -112 142 -201
228 -243 62 -31 73 -33 172 -33 99 0 110 2 171 32 79 39 148 109 208 211 66
110 70 128 71 304 l0 157 26 20 c34 27 76 27 100 0 17 -19 20 -42 24 -203 l5
-183 85 -167 85 -167 0 -102 0 -102 -52 -105 c-29 -58 -95 -181 -147 -275
l-94 -170 -469 -5 c-257 -3 -473 -3 -480 -2 -15 5 -185 302 -255 447 l-53 110
0 102 0 102 85 168 85 167 5 182 c4 161 7 184 24 203 25 27 68 27 101 -1z
m1068 -1823 c326 -571 445 -786 567 -1030 271 -539 400 -933 412 -1256 3 -64
0 -80 -16 -98 -34 -37 -322 -119 -658 -185 -373 -75 -567 -91 -1003 -83 -328
6 -419 15 -707 67 -385 70 -693 154 -743 202 -55 52 9 430 130 763 76 211 240
560 403 860 87 160 522 927 534 943 8 9 114 12 492 10 l481 -3 108 -190z"/>
<path d="M2341 5787 c-1 -5 -21 -126 -46 -270 -80 -472 -83 -516 -45 -647 5
-19 39 -190 75 -380 36 -190 69 -356 74 -370 18 -55 85 310 102 555 19 274
-14 605 -90 895 -29 111 -69 233 -70 217z"/>
<path d="M4867 5473 c-71 -296 -97 -605 -78 -918 10 -157 45 -462 53 -471 5
-5 156 476 167 534 15 75 13 242 -4 376 -16 121 -99 574 -107 582 -3 2 -17
-44 -31 -103z"/>
</g>
</svg>
