<?xml version="1.0" standalone="no"?>
<!DOCTYPE svg PUBLIC "-//W3C//DTD SVG 20010904//EN"
 "http://www.w3.org/TR/2001/REC-SVG-20010904/DTD/svg10.dtd">
<svg version="1.0" xmlns="http://www.w3.org/2000/svg"
 width="1043.000000pt" height="1043.000000pt" viewBox="0 0 1043.000000 1043.000000"
 preserveAspectRatio="xMidYMid meet">
<metadata>
Created by potrace 1.16, written by Peter Selinger 2001-2019
</metadata>
<g transform="translate(0.000000,1043.000000) scale(0.100000,-0.100000)"
fill="#000000" stroke="none">
<path d="M4985 10424 c-455 -27 -830 -89 -1214 -199 -1720 -494 -3074 -1848
-3566 -3566 -89 -312 -154 -664 -186 -1009 -16 -174 -16 -696 0 -870 102
-1110 503 -2079 1211 -2930 134 -160 459 -486 619 -619 854 -711 1818 -1110
2926 -1213 180 -17 719 -16 890 1 690 68 1267 229 1850 516 536 264 957 566
1385 995 282 281 461 499 666 810 680 1031 969 2247 828 3480 -104 909 -448
1774 -1001 2516 -211 282 -523 616 -783 838 -824 704 -1822 1126 -2905 1231
-154 15 -596 27 -720 19z m-1811 -2264 c14 -5 30 -19 37 -31 15 -29 16 -247 1
-275 -21 -40 -54 -45 -311 -42 l-245 3 -9 35 c-11 44 -20 50 -82 50 -87 0 -80
52 -83 -597 -3 -689 10 -1279 33 -1442 93 -666 326 -1193 700 -1580 289 -298
616 -451 968 -451 260 0 486 77 720 244 478 341 812 957 921 1696 42 286 46
392 46 1270 l0 847 -37 7 c-61 10 -120 7 -131 -6 -6 -7 -12 -26 -14 -43 l-3
-30 -245 -3 c-273 -3 -294 1 -316 54 -17 42 -19 213 -2 249 23 51 47 55 302
55 129 0 241 -3 250 -6 10 -4 16 -18 16 -38 0 -54 7 -56 209 -56 103 0 203 -5
224 -11 21 -6 56 -26 77 -45 31 -28 41 -47 50 -90 8 -38 10 -314 7 -966 -4
-975 -4 -988 -58 -1303 -165 -958 -669 -1729 -1341 -2049 -168 -81 -337 -131
-501 -151 -39 -5 -61 -13 -65 -23 -8 -23 50 -186 114 -322 131 -276 322 -504
549 -657 354 -238 916 -317 1355 -189 629 182 1070 778 1294 1746 39 172 82
454 91 600 10 168 13 178 54 218 47 46 45 24 71 567 11 226 27 544 36 708 8
165 13 301 10 304 -3 3 -38 17 -78 30 -269 91 -437 269 -499 530 -26 107 -27
249 -4 348 48 208 202 397 400 491 110 53 184 68 320 68 141 0 211 -16 335
-77 70 -34 102 -58 181 -136 78 -79 102 -111 137 -181 53 -108 72 -182 79
-299 22 -364 -231 -692 -587 -762 -36 -7 -70 -17 -76 -21 -7 -5 -14 -53 -18
-111 -10 -164 -35 -656 -51 -1007 -8 -179 -18 -347 -21 -373 -6 -46 -4 -51 27
-84 l34 -34 -1 -132 c-2 -155 -52 -495 -110 -745 -111 -482 -285 -887 -517
-1202 -86 -117 -291 -323 -411 -412 -102 -77 -238 -154 -366 -209 -425 -183
-995 -197 -1480 -37 -160 54 -390 169 -503 253 -320 238 -558 582 -697 1010
-24 72 -48 136 -54 143 -7 7 -52 23 -102 36 -260 70 -485 187 -689 358 -522
437 -857 1104 -974 1939 -36 259 -42 464 -39 1329 l3 825 23 37 c13 20 40 47
60 60 35 22 50 23 242 28 l204 5 10 40 c5 22 14 43 20 47 16 11 481 10 510 -2z
m552 -1036 c131 -29 241 -98 359 -226 l69 -75 100 101 c105 106 203 169 305
196 76 20 201 28 302 19 370 -32 629 -361 629 -799 0 -234 -77 -462 -237 -705
-199 -301 -589 -674 -1034 -988 l-65 -46 -172 129 c-241 179 -382 300 -563
480 -346 344 -530 645 -584 954 -66 379 91 759 372 903 101 53 141 65 238 73
96 8 198 3 281 -16z"/>
<path d="M7940 7650 c-210 -26 -380 -177 -435 -385 -59 -226 54 -473 265 -579
103 -51 107 -50 115 32 11 119 6 112 86 112 105 0 109 -4 109 -107 l0 -86 41
6 c59 8 159 60 220 115 189 169 229 448 95 656 -109 168 -303 260 -496 236z
m175 -375 c87 -66 88 -204 2 -269 -127 -97 -312 25 -268 177 15 48 53 93 96
113 48 23 127 13 170 -21z"/>
<path d="M3427 6840 c-94 -24 -187 -100 -239 -196 -88 -162 -92 -422 -9 -610
l20 -44 227 2 227 3 101 312 c56 172 103 313 106 312 3 0 61 -118 130 -262 68
-144 156 -327 194 -406 l69 -143 36 93 37 94 232 3 232 2 0 -115 0 -114 -156
-3 -157 -3 -90 -303 c-50 -166 -94 -299 -98 -295 -5 5 -92 195 -194 423 -103
228 -188 416 -190 419 -3 2 -9 -9 -15 -25 -6 -16 -26 -69 -46 -119 l-34 -90
-246 4 c-287 4 -269 21 -141 -139 113 -140 347 -367 534 -517 222 -178 187
-167 290 -87 530 413 841 787 923 1110 25 98 27 278 4 367 -35 136 -112 241
-216 298 -62 33 -66 34 -183 34 -109 0 -125 -2 -175 -26 -78 -37 -131 -88
-297 -286 -117 -139 -149 -172 -158 -161 -7 7 -71 83 -142 168 -223 265 -274
301 -442 306 -53 2 -113 -1 -134 -6z"/>
</g>
</svg>
