<?xml version="1.0" standalone="no"?>
<!DOCTYPE svg PUBLIC "-//W3C//DTD SVG 20010904//EN"
 "http://www.w3.org/TR/2001/REC-SVG-20010904/DTD/svg10.dtd">
<svg version="1.0" xmlns="http://www.w3.org/2000/svg"
 width="1042.000000pt" height="1043.000000pt" viewBox="0 0 1042.000000 1043.000000"
 preserveAspectRatio="xMidYMid meet">
<metadata>
Created by potrace 1.16, written by Peter Selinger 2001-2019
</metadata>
<g transform="translate(0.000000,1043.000000) scale(0.100000,-0.100000)"
fill="#000000" stroke="none">
<path d="M4875 10419 c-1143 -76 -2200 -507 -3071 -1254 -791 -678 -1378
-1619 -1639 -2628 -126 -489 -172 -889 -162 -1425 7 -396 35 -647 112 -1005
453 -2106 2185 -3731 4316 -4047 281 -41 452 -53 779 -53 327 0 498 12 779 53
948 141 1820 536 2586 1171 141 116 512 490 635 639 710 857 1117 1865 1199
2965 14 180 14 580 0 760 -120 1618 -964 3064 -2309 3959 -358 238 -701 414
-1096 559 -662 244 -1423 353 -2129 306z m245 -1112 l15 -32 407 -3 406 -2 26
-31 26 -31 0 -271 c0 -150 -4 -277 -8 -283 -4 -5 -18 -18 -32 -27 -22 -15 -65
-17 -427 -17 l-403 0 2 -242 3 -243 205 -5 c113 -3 210 -9 217 -13 20 -13 33
-77 33 -168 0 -101 -4 -96 128 -164 122 -62 354 -233 420 -309 10 -10 28 -31
42 -46 29 -32 128 -169 152 -212 9 -16 23 -37 30 -46 22 -26 87 -148 120 -227
74 -174 141 -418 157 -570 5 -53 13 -100 16 -104 4 -3 161 -7 350 -9 l343 -3
6 -31 c3 -17 6 -69 6 -115 0 -80 -2 -86 -29 -114 -27 -26 -36 -29 -95 -29 -36
0 -66 -3 -66 -7 0 -5 -1 -237 -1 -517 -1 -451 1 -510 15 -524 14 -14 107 -16
898 -16 l883 -1 38 -30 37 -30 -2 -110 c-3 -106 -4 -110 -28 -122 -14 -6 -100
-15 -193 -19 -92 -4 -170 -11 -174 -17 -3 -5 -7 -459 -9 -1008 -2 -706 -6
-1005 -14 -1019 -6 -12 -26 -30 -43 -40 -31 -19 -60 -20 -1135 -20 -1216 0
-1125 -5 -1192 65 l-35 36 0 697 0 697 173 5 c188 5 195 8 190 63 -3 33 -29
44 -313 144 -160 56 -264 93 -490 174 -66 23 -194 68 -285 100 -91 31 -220 76
-288 100 l-123 43 -122 -43 c-67 -23 -149 -51 -182 -62 -33 -11 -89 -31 -125
-44 -36 -12 -144 -51 -240 -85 -96 -34 -218 -78 -270 -97 -52 -19 -160 -56
-240 -83 -80 -27 -183 -65 -230 -84 -77 -32 -85 -38 -88 -64 -5 -50 14 -56
187 -60 86 -2 160 -8 164 -12 5 -4 8 -315 7 -690 -1 -763 4 -716 -75 -770
l-44 -30 -1110 2 -1110 3 -30 29 c-17 17 -36 46 -41 65 -10 36 -15 1944 -5
1960 20 34 -91 65 -180 51 -89 -15 -144 -12 -186 12 l-39 22 0 111 c0 118 4
129 55 150 11 5 424 9 918 10 571 1 901 5 907 11 7 7 9 200 8 530 l-3 519 -87
5 c-74 4 -90 9 -112 29 -24 23 -26 31 -26 110 0 68 4 93 20 119 l20 32 339 0
c187 0 342 4 345 8 2 4 10 48 16 98 27 216 115 533 186 669 15 28 45 86 68
131 22 44 56 98 75 119 18 21 48 61 66 89 34 52 186 213 240 253 68 50 265
164 326 188 77 30 92 52 83 119 -9 66 4 154 27 177 17 17 35 19 217 19 108 0
203 4 209 8 10 6 13 142 16 598 1 324 6 595 10 602 5 6 20 12 35 12 21 0 31
-8 42 -33z m-276 -5503 c14 -13 16 -63 16 -388 0 -358 -1 -374 -20 -391 -17
-15 -36 -17 -154 -13 -74 2 -139 7 -143 12 -4 4 -8 181 -8 392 0 331 2 386 15
394 8 5 74 10 147 10 106 0 135 -3 147 -16z m691 2 c19 -14 20 -29 17 -392 -1
-251 -5 -381 -12 -388 -7 -7 -64 -11 -146 -11 -123 0 -137 2 -150 19 -19 27
-21 755 -2 774 18 18 268 16 293 -2z"/>
<path d="M4297 7418 c-112 -132 -192 -267 -294 -494 -55 -122 -139 -492 -126
-556 11 -55 78 -76 125 -39 23 18 26 33 42 168 9 81 24 181 32 221 36 170 152
433 261 590 65 93 80 127 63 147 -24 29 -56 17 -103 -37z"/>
<path d="M4715 7462 c-22 -16 -76 -117 -123 -229 -57 -136 -102 -290 -131
-448 -24 -131 -49 -381 -41 -416 3 -14 21 -32 43 -44 34 -18 39 -19 64 -5 15
9 33 27 40 40 6 14 16 108 22 210 20 331 59 523 148 725 52 117 57 139 37 159
-16 17 -42 21 -59 8z"/>
<path d="M5036 7457 c-17 -12 -19 -50 -30 -488 -10 -426 -12 -535 -7 -591 2
-31 38 -58 76 -58 47 0 75 29 75 78 0 20 -5 260 -11 532 -11 531 -12 540 -62
540 -13 0 -31 -6 -41 -13z"/>
<path d="M5375 7456 c-19 -13 -18 -16 9 -87 16 -41 39 -94 51 -119 57 -115
119 -458 131 -725 l7 -150 33 -32 c38 -39 74 -43 104 -11 25 27 27 117 5 293
-30 245 -95 481 -179 655 -92 191 -111 213 -161 176z"/>
<path d="M5757 7452 c-10 -10 -17 -22 -17 -26 0 -5 33 -58 74 -120 41 -61 81
-127 89 -146 9 -19 22 -46 30 -60 34 -61 49 -93 77 -173 51 -144 87 -305 94
-417 8 -125 19 -163 51 -184 33 -21 57 -20 89 5 21 16 26 29 26 62 -1 111 -77
419 -135 544 -19 42 -35 81 -35 87 0 34 -138 258 -211 343 -24 28 -52 63 -62
77 -21 30 -47 33 -70 8z"/>
<path d="M3452 5783 c-13 -10 -27 -35 -31 -56 -5 -20 -7 -155 -6 -300 3 -218
6 -267 20 -294 19 -37 43 -47 91 -39 63 12 64 18 64 348 0 294 0 297 -22 323
-31 34 -86 43 -116 18z"/>
<path d="M4522 5784 c-12 -8 -27 -24 -32 -34 -7 -12 -11 -130 -12 -308 -1
-259 0 -290 16 -314 32 -48 82 -49 129 -2 l27 27 0 289 c0 173 -4 297 -10 308
-10 18 -63 50 -84 50 -6 0 -22 -7 -34 -16z"/>
<path d="M5029 5772 l-30 -27 -1 -295 c-2 -320 0 -328 54 -351 36 -15 85 -2
105 27 13 21 16 68 17 321 l1 296 -28 29 c-37 37 -77 37 -118 0z"/>
<path d="M5583 5785 c-63 -27 -62 -21 -58 -340 2 -159 4 -294 4 -298 1 -4 13
-19 27 -32 38 -35 87 -34 125 4 l29 29 0 297 0 296 -25 23 c-32 30 -65 36
-102 21z"/>
<path d="M6633 5790 c-46 -19 -50 -45 -47 -350 2 -157 5 -294 8 -306 6 -23 44
-44 79 -44 12 0 35 11 50 25 l27 26 0 309 0 310 -22 14 c-32 20 -69 27 -95 16z"/>
<path d="M3977 5769 l-27 -24 -2 -215 c-4 -428 -3 -431 82 -432 36 0 48 5 67
27 l24 27 -3 299 c-3 334 -2 326 -75 336 -32 4 -45 1 -66 -18z"/>
<path d="M6092 5783 c-31 -12 -36 -50 -39 -323 -2 -178 1 -287 8 -308 19 -59
94 -77 142 -35 15 15 17 43 17 325 0 295 -1 309 -20 328 -19 19 -76 26 -108
13z"/>
<path d="M2117 3814 c-4 -4 -7 -181 -7 -394 0 -287 3 -389 12 -398 18 -18 292
-17 307 2 8 9 10 123 9 402 l-3 389 -156 3 c-85 1 -158 -1 -162 -4z"/>
<path d="M2801 3806 c-18 -21 -19 -759 -2 -780 11 -13 40 -16 171 -16 155 0
158 0 164 23 8 29 8 735 0 765 -6 22 -9 22 -164 22 -122 0 -160 -3 -169 -14z"/>
<path d="M7035 3797 c-3 -12 -4 -193 -3 -402 l3 -380 162 -3 c162 -2 163 -2
168 20 3 13 4 194 2 403 l-2 380 -162 2 c-160 2 -163 2 -168 -20z"/>
<path d="M7729 3808 c0 -7 0 -186 0 -397 -1 -309 2 -385 13 -392 7 -5 82 -9
166 -9 l152 0 1 28 c0 15 0 191 0 391 -1 251 -5 368 -12 378 -16 18 -319 19
-320 1z"/>
</g>
</svg>
