<?xml version="1.0" standalone="no"?>
<!DOCTYPE svg PUBLIC "-//W3C//DTD SVG 20010904//EN"
 "http://www.w3.org/TR/2001/REC-SVG-20010904/DTD/svg10.dtd">
<svg version="1.0" xmlns="http://www.w3.org/2000/svg"
 width="1042.000000pt" height="1043.000000pt" viewBox="0 0 1042.000000 1043.000000"
 preserveAspectRatio="xMidYMid meet">
<metadata>
Created by potrace 1.16, written by Peter Selinger 2001-2019
</metadata>
<g transform="translate(0.000000,1043.000000) scale(0.100000,-0.100000)"
fill="#000000" stroke="none">
<path d="M4916 10419 c-1721 -94 -3281 -1038 -4181 -2529 -104 -173 -269 -501
-349 -695 -338 -820 -458 -1740 -345 -2645 171 -1368 876 -2599 1988 -3468
129 -101 436 -307 586 -393 159 -90 507 -258 670 -322 915 -360 1908 -457
2875 -281 2182 397 3891 2170 4209 4364 41 284 46 367 46 775 -1 435 -8 530
-66 875 -132 787 -461 1560 -938 2205 -1053 1424 -2725 2210 -4495 2114z m680
-620 c16 -5 109 -21 209 -35 535 -75 1009 -218 1480 -449 1043 -512 1839
-1374 2270 -2461 123 -309 192 -566 280 -1036 l55 -296 -2 -394 c-3 -328 -6
-407 -21 -478 -9 -47 -31 -164 -47 -260 -222 -1281 -831 -2298 -1796 -3002
-341 -248 -750 -469 -1187 -642 -297 -118 -406 -147 -937 -248 l-325 -63 -359
-3 c-298 -2 -367 0 -411 13 -29 8 -122 24 -208 35 -801 103 -1549 406 -2195
890 -780 584 -1351 1377 -1645 2285 -75 230 -107 370 -207 907 l-40 218 0 369
c0 299 3 376 15 410 8 23 24 99 35 169 144 898 438 1620 912 2243 281 371 652
717 1058 989 322 216 738 428 1137 579 233 88 376 124 853 211 151 28 280 52
285 54 24 10 765 5 791 -5z"/>
<path d="M4890 9609 c-456 -32 -923 -140 -1350 -312 -844 -338 -1597 -956
-2096 -1717 -809 -1236 -963 -2738 -422 -4113 63 -160 223 -483 311 -629 209
-345 411 -603 691 -884 508 -509 1108 -879 1784 -1103 723 -239 1540 -289
2277 -140 1571 318 2873 1476 3385 3009 143 429 214 840 227 1310 28 1084
-344 2136 -1056 2985 -109 130 -336 360 -481 488 -894 786 -2089 1190 -3270
1106z m227 -303 c136 -29 162 -1 -288 -307 -222 -151 -410 -278 -417 -283 -6
-4 -28 -1 -48 6 l-35 12 6 56 c18 163 41 207 174 340 92 91 183 148 282 174
70 19 240 20 326 2z m-849 -159 l63 -68 -123 -128 c-140 -145 -198 -233 -198
-297 0 -48 30 -87 84 -109 18 -8 187 -30 377 -49 189 -20 364 -38 388 -42 l44
-6 -7 -55 c-11 -98 -44 -154 -106 -181 -30 -13 -84 -15 -351 -13 l-316 3 -38
-90 -39 -90 -167 83 c-182 92 -181 91 -193 20 -12 -65 -41 -120 -80 -150 -19
-15 -85 -44 -145 -66 -257 -90 -516 -203 -796 -348 -242 -124 -510 -279 -560
-323 -44 -39 -85 -98 -179 -261 -76 -131 -106 -162 -198 -208 -43 -22 -78 -42
-78 -46 0 -3 34 -41 75 -84 41 -43 75 -83 75 -88 0 -5 -17 -23 -37 -40 -39
-32 -71 -38 -103 -21 -17 9 -150 171 -150 182 0 3 28 17 63 32 l63 26 53 156
c30 85 52 157 49 159 -2 2 -32 -14 -66 -36 -117 -76 -218 -214 -276 -377 -29
-83 -31 -94 -31 -247 0 -158 -1 -161 -29 -209 -35 -58 -40 -119 -13 -159 23
-35 87 -67 277 -137 261 -97 702 -277 912 -373 l77 -35 100 -155 c112 -170 98
-158 378 -346 136 -92 189 -143 199 -195 14 -77 -19 -124 -125 -174 -95 -45
-173 -121 -223 -217 -20 -38 -60 -144 -88 -235 -29 -91 -63 -188 -77 -217 -49
-106 -124 -139 -242 -109 -35 9 -74 16 -87 16 -35 0 -97 -34 -127 -69 -54 -65
-323 -506 -388 -636 -27 -56 -29 -64 -19 -114 13 -70 91 -227 274 -553 l38
-68 -79 -50 -78 -51 -38 43 c-88 99 -254 312 -336 433 -336 494 -566 1064
-665 1651 -35 207 -68 569 -69 744 0 138 1 150 32 244 18 55 82 196 142 315
59 118 107 216 106 216 -121 72 -167 157 -145 273 10 55 106 333 173 502 52
132 199 434 275 565 323 563 790 1053 1350 1417 144 94 354 213 409 233 46 16
310 69 315 63 2 -1 6 -12 10 -24 5 -15 -11 -44 -65 -115 l-70 -94 43 -14 c24
-8 81 -14 128 -15 72 0 94 4 140 25 97 46 144 96 339 362 40 54 75 97 79 95 4
-2 36 -34 70 -71z m2318 22 c32 -5 82 -17 109 -26 73 -23 289 -125 450 -211
1216 -653 1963 -1644 2234 -2962 55 -271 70 -421 85 -882 l5 -148 -29 0 c-34
0 -26 -23 -90 264 -28 126 -53 233 -56 238 -3 4 -20 8 -37 8 l-32 0 -34 -117
c-26 -91 -36 -145 -41 -238 -5 -98 -11 -131 -32 -176 -34 -75 -76 -120 -150
-160 -61 -33 -66 -34 -178 -34 -99 0 -122 4 -168 24 -63 28 -107 76 -122 132
-24 87 18 167 126 240 42 28 77 49 79 47 2 -1 27 -79 57 -173 l54 -170 89 164
c161 298 177 351 168 545 -6 116 -6 117 -34 132 -15 7 -32 14 -38 14 -5 0 -96
-67 -203 -148 -106 -81 -210 -160 -230 -176 l-37 -27 -25 81 c-30 92 -32 149
-11 210 20 57 19 89 -7 183 l-21 80 -31 -34 c-17 -19 -46 -52 -64 -72 l-33
-38 -49 36 c-28 20 -54 35 -59 33 -16 -5 -241 -192 -237 -196 2 -2 32 2 66 8
116 21 207 -15 250 -100 24 -47 53 -237 47 -309 -3 -45 -9 -59 -35 -82 -29
-26 -87 -49 -124 -49 -16 0 -18 18 -20 191 l-3 190 -40 -53 c-22 -29 -135
-149 -250 -268 -294 -301 -371 -407 -435 -600 -48 -140 -85 -183 -210 -234
-236 -98 -359 -235 -541 -601 -49 -99 -109 -206 -134 -238 -113 -143 -295
-220 -475 -201 -61 6 -68 9 -111 54 -44 45 -59 80 -59 136 0 13 -18 52 -41 86
-153 236 -235 507 -314 1038 -67 452 -109 640 -186 840 -29 77 -33 82 -58 77
-14 -2 -84 -17 -156 -32 -175 -38 -383 -40 -520 -7 -182 45 -360 158 -493 313
-77 90 -182 244 -216 319 -67 146 -31 323 88 437 74 72 380 293 520 376 136
80 200 135 258 220 51 75 72 122 128 291 l46 139 86 31 c48 17 89 34 93 37 3
4 -51 103 -120 222 l-125 216 42 85 41 84 -17 75 c-26 109 -10 166 64 230 38
32 159 88 843 386 70 30 127 61 127 69 0 7 -13 39 -30 71 -29 58 -29 59 -10
76 19 17 23 16 115 -45 l94 -62 48 42 c101 90 223 124 359 99z m1845 -4864
c50 -91 88 -135 116 -135 14 0 52 36 100 93 18 23 29 27 77 27 73 0 106 -13
106 -42 1 -32 33 -101 61 -127 37 -34 100 -28 252 25 73 25 140 48 151 51 18
6 18 0 14 -103 -5 -102 -9 -120 -68 -284 -71 -202 -150 -400 -192 -483 -97
-194 -245 -228 -432 -97 -87 61 -110 70 -271 110 l-150 36 -3 466 -2 467 82
45 c46 25 89 45 97 43 7 -1 35 -42 62 -92z m-1238 -293 c-26 -31 -129 -153
-228 -270 l-179 -212 -29 28 -28 29 61 111 c123 225 203 302 360 353 93 30 98
26 43 -39z m631 -499 c33 -97 21 -169 -63 -365 -23 -54 -45 -120 -48 -147 l-6
-50 -38 19 c-75 39 -88 100 -44 217 45 119 167 383 175 378 5 -3 15 -26 24
-52z m-3904 -2118 c20 -66 57 -122 97 -147 52 -32 131 -29 246 7 80 25 97 27
200 22 119 -5 162 -17 322 -83 161 -67 289 -59 477 31 94 45 148 47 186 6 15
-15 35 -40 45 -54 30 -44 80 -51 162 -22 109 38 160 32 360 -42 77 -29 145
-48 190 -52 l70 -7 -110 -36 c-261 -86 -570 -128 -951 -128 -516 0 -1024 83
-1389 227 -121 48 -228 104 -217 115 30 30 288 214 293 209 4 -3 12 -24 19
-46z"/>
<path d="M6875 7478 c-82 -36 -127 -65 -155 -101 l-21 -27 28 -12 c58 -25 141
-16 239 27 l92 39 -46 53 c-25 29 -51 53 -56 52 -6 0 -42 -14 -81 -31z"/>
<path d="M5506 7315 c-77 -32 -154 -85 -236 -162 l-65 -62 353 -1 c236 0 352
3 352 10 0 23 -54 115 -91 155 -82 88 -193 110 -313 60z"/>
<path d="M6505 7219 c-57 -8 -254 -53 -327 -75 -12 -4 -22 3 -30 20 -6 14 -14
26 -18 26 -3 0 -41 -48 -84 -106 -74 -102 -77 -108 -71 -146 l7 -40 102 7
c200 13 343 34 407 59 35 13 142 55 238 92 l173 68 -6 45 c-3 24 -8 46 -11 49
-9 9 -313 10 -380 1z"/>
<path d="M7412 6305 c3 -5 45 -102 93 -215 108 -253 187 -410 230 -455 29 -31
38 -35 84 -35 28 0 51 2 51 4 0 7 -441 689 -453 701 -7 7 -8 7 -5 0z"/>
</g>
</svg>
