<?xml version="1.0" standalone="no"?>
<!DOCTYPE svg PUBLIC "-//W3C//DTD SVG 20010904//EN"
 "http://www.w3.org/TR/2001/REC-SVG-20010904/DTD/svg10.dtd">
<svg version="1.0" xmlns="http://www.w3.org/2000/svg"
 width="1042.000000pt" height="1042.000000pt" viewBox="0 0 1042.000000 1042.000000"
 preserveAspectRatio="xMidYMid meet">
<metadata>
Created by potrace 1.16, written by Peter Selinger 2001-2019
</metadata>
<g transform="translate(0.000000,1042.000000) scale(0.100000,-0.100000)"
fill="#000000" stroke="none">
<path d="M4870 10414 c-378 -33 -619 -71 -920 -145 -777 -191 -1515 -570
-2130 -1094 -249 -212 -572 -556 -771 -820 -471 -625 -798 -1350 -948 -2100
-71 -352 -92 -558 -98 -960 -6 -353 6 -562 48 -844 127 -870 466 -1680 998
-2386 272 -361 654 -743 1016 -1016 675 -509 1471 -850 2295 -983 329 -53 429
-61 845 -61 313 0 421 4 550 18 379 44 761 126 1095 237 811 269 1565 748
2147 1366 834 885 1322 1996 1413 3214 13 174 13 566 0 740 -123 1646 -980
3100 -2360 4003 -676 442 -1460 721 -2285 812 -142 16 -775 29 -895 19z m757
-2229 c20 -9 51 -26 68 -39 35 -27 233 -311 256 -366 18 -45 16 -145 -3 -190
-8 -19 -27 -50 -43 -68 -30 -36 -1405 -985 -1463 -1009 -86 -37 -213 -10 -279
60 -35 36 -202 276 -228 326 -42 81 -25 206 38 277 31 36 1405 985 1460 1009
43 19 149 19 194 0z m702 -1451 c205 -300 372 -546 370 -548 -38 -29 -1281
-877 -1283 -875 -13 16 -739 1076 -742 1084 -3 9 1262 885 1276 885 3 -1 173
-246 379 -546z m767 -709 c75 -22 115 -63 234 -237 85 -124 111 -172 120 -212
19 -92 -21 -204 -92 -258 -106 -80 -1387 -953 -1421 -969 -90 -40 -224 -14
-288 57 -51 56 -213 300 -232 349 -36 94 -9 202 70 276 64 61 1412 981 1457
995 55 17 93 17 152 -1z m-2262 -316 c150 -218 176 -263 165 -274 -8 -7 -432
-347 -943 -755 -579 -463 -948 -751 -981 -766 -148 -68 -347 -36 -468 75 -54
50 -138 169 -175 248 -24 52 -27 69 -27 168 0 104 2 114 33 181 62 131 36 114
1172 779 569 332 1037 605 1040 605 3 0 85 -117 184 -261z m2571 -2303 c105
-49 146 -127 153 -288 l4 -106 137 -4 c151 -4 186 -15 248 -80 64 -67 73 -102
73 -309 0 -206 -7 -242 -60 -309 -18 -22 -55 -51 -88 -67 l-57 -28 -1545 0
-1545 0 -50 23 c-66 30 -102 66 -131 127 -23 47 -24 60 -24 250 0 174 3 205
19 240 25 54 76 103 136 131 44 21 65 24 173 24 l122 0 0 93 c0 55 6 115 16
146 19 66 73 127 139 157 l50 24 1090 0 1090 0 50 -24z"/>
</g>
</svg>
