<?xml version="1.0" standalone="no"?>
<!DOCTYPE svg PUBLIC "-//W3C//DTD SVG 20010904//EN"
 "http://www.w3.org/TR/2001/REC-SVG-20010904/DTD/svg10.dtd">
<svg version="1.0" xmlns="http://www.w3.org/2000/svg"
 width="1044.000000pt" height="1043.000000pt" viewBox="0 0 1044.000000 1043.000000"
 preserveAspectRatio="xMidYMid meet">
<metadata>
Created by potrace 1.16, written by Peter Selinger 2001-2019
</metadata>
<g transform="translate(0.000000,1043.000000) scale(0.100000,-0.100000)"
fill="#000000" stroke="none">
<path d="M4895 10419 c-519 -33 -1046 -148 -1550 -340 l-89 -34 749 -5 c830
-6 786 -2 852 -71 65 -68 87 -168 113 -498 29 -380 -4 -1024 -61 -1175 -25
-69 -80 -120 -150 -140 -76 -23 -1539 -24 -1613 -2 -154 47 -197 148 -241 571
-41 392 2 1024 80 1175 l16 30 -84 -41 c-46 -23 -84 -47 -84 -53 0 -6 -10 -65
-21 -131 -37 -210 -47 -333 -47 -600 0 -428 49 -773 129 -909 53 -90 148 -150
257 -163 35 -5 422 -6 859 -3 l795 5 57 28 c91 45 153 126 177 232 77 342 80
1173 6 1563 -26 134 -100 229 -214 273 -55 22 -69 22 -636 27 l-580 5 75 24
c41 13 118 36 171 49 l97 25 463 -4 c330 -2 475 -7 501 -15 97 -33 187 -123
212 -215 19 -66 55 -604 63 -922 6 -249 -3 -427 -37 -759 -24 -230 -48 -289
-144 -355 -94 -65 -55 -62 -1002 -67 -892 -5 -980 -2 -1067 35 -94 40 -173
138 -197 244 -15 71 -50 722 -56 1057 -4 228 -2 332 8 413 13 97 13 107 -1
102 -37 -13 -328 -195 -452 -281 -749 -524 -1372 -1265 -1744 -2074 -77 -167
-171 -398 -164 -403 282 -208 432 -448 499 -796 14 -70 27 -112 40 -125 25
-25 93 -34 260 -35 74 0 311 -6 527 -12 l392 -12 48 24 c28 15 65 47 91 79 93
118 104 131 132 145 36 19 101 28 118 17 10 -7 -12 -51 -92 -188 l-105 -179
334 -5 335 -5 51 -51 52 -52 -43 -38 c-23 -22 -56 -44 -73 -51 -48 -18 -2216
-18 -2221 0 -2 6 -11 75 -20 152 -51 436 -157 718 -334 891 l-57 55 -12 -29
c-6 -16 -31 -97 -53 -181 l-42 -152 35 -72 c57 -116 71 -184 72 -332 0 -109
-4 -142 -23 -205 -42 -131 -109 -247 -200 -342 l-35 -37 5 -339 c3 -192 9
-346 15 -356 10 -18 55 122 121 379 l29 110 285 3 284 2 37 -117 c49 -156 60
-221 55 -323 -5 -79 -15 -115 -65 -227 -4 -10 19 -13 96 -13 146 0 192 -25
230 -126 l19 -48 78 0 c68 -1 86 -5 127 -29 29 -17 60 -47 80 -78 26 -40 46
-56 106 -87 49 -25 88 -53 117 -87 24 -27 44 -53 44 -57 0 -16 -111 -93 -157
-109 l-47 -15 80 -43 c43 -23 90 -52 103 -64 29 -27 60 -93 61 -129 0 -48 -41
-141 -82 -182 l-38 -38 -89 4 c-83 4 -93 7 -158 46 -38 23 -77 42 -87 42 -24
0 -67 -24 -91 -50 -72 -80 -203 -87 -283 -16 -61 54 -84 66 -127 66 -33 0 -50
-8 -90 -41 -70 -58 -103 -73 -160 -73 -58 0 -101 20 -164 75 -24 22 -52 39
-62 39 -17 0 -15 -10 17 -102 41 -119 133 -349 144 -361 4 -4 33 8 66 27 32
19 59 34 60 33 8 -9 95 -332 96 -355 1 -16 -8 -43 -20 -59 l-21 -29 52 -92 52
-92 23 68 c12 37 36 84 52 104 38 46 105 73 156 63 63 -11 537 -269 577 -313
10 -11 22 -47 28 -81 l11 -61 30 25 c43 36 83 33 154 -13 103 -67 1118 -773
1136 -790 9 -10 18 -26 20 -37 3 -18 -3 -20 -48 -23 -77 -4 -175 22 -283 78
-77 39 -149 63 -366 123 l-270 74 3 128 c2 98 0 126 -10 123 -10 -4 -112 -156
-121 -182 -3 -9 -134 34 -165 53 -10 6 -7 41 14 165 14 87 22 161 18 166 -5 4
-31 10 -57 14 -48 6 -48 6 -32 -16 29 -42 19 -79 -42 -156 l-57 -72 -58 0
c-39 0 -72 7 -98 20 -22 11 -40 22 -40 24 0 2 11 77 25 167 21 130 23 164 13
170 -7 5 -17 7 -23 6 -5 -2 -35 -51 -65 -109 -30 -58 -63 -115 -74 -127 -31
-34 -76 -36 -136 -6 -28 14 -53 25 -55 23 -5 -5 136 -189 244 -318 129 -156
488 -514 641 -640 349 -289 652 -486 1045 -680 585 -289 1148 -448 1825 -516
316 -32 811 -23 1160 22 897 114 1788 484 2510 1043 1036 802 1734 1964 1950
3246 57 337 65 443 65 885 0 433 -7 524 -61 853 -174 1065 -681 2053 -1449
2822 -1067 1069 -2520 1619 -4030 1524z m823 -836 c80 -29 125 -29 208 2 88
33 174 34 226 2 77 -46 118 -137 118 -259 l0 -68 -184 0 -185 0 -11 58 c-6 31
-14 70 -18 87 l-8 29 -24 -39 c-13 -22 -40 -64 -59 -94 l-34 -55 -35 70 -35
69 -28 -62 -28 -63 -125 0 -125 0 -12 42 c-14 52 -6 106 25 167 29 56 104 128
143 137 15 3 33 7 38 9 20 6 91 -9 153 -32z m956 -278 c46 -20 66 -51 73 -117
5 -48 2 -60 -38 -133 -42 -78 -43 -82 -42 -175 0 -143 63 -439 119 -567 98
-220 338 -427 659 -568 165 -72 189 -86 223 -135 32 -48 29 -83 -13 -124 -73
-73 -270 -94 -465 -50 -91 20 -216 62 -275 92 -278 139 -523 486 -590 836 -19
99 -19 280 0 371 22 103 66 185 132 245 52 47 59 59 93 158 46 132 68 182 79
182 5 0 25 -7 45 -15z m-814 -180 c7 -49 15 -94 17 -99 3 -4 24 29 47 75 58
117 71 125 208 122 61 -1 113 -5 117 -8 9 -10 -47 -109 -94 -164 -85 -100
-205 -186 -307 -222 -36 -12 -41 -11 -125 31 -73 37 -105 61 -188 145 -91 91
-172 204 -157 219 3 3 74 6 157 6 l152 0 22 -52 c19 -45 24 -51 34 -37 7 8 30
37 51 63 47 56 47 56 66 -79z m2681 -934 l-74 -38 48 -12 c61 -15 114 -43 143
-74 37 -39 44 -124 40 -479 -3 -302 -4 -325 -23 -357 -11 -19 -33 -43 -48 -55
-27 -20 -41 -21 -237 -21 -195 0 -210 1 -237 21 -62 45 -63 52 -63 452 0 382
2 404 48 456 23 25 90 56 125 56 l28 0 -37 45 -36 45 198 0 199 -1 -74 -38z
m-7371 -520 c57 -158 57 -161 -13 -161 -52 0 -89 21 -133 77 -21 27 -51 63
-68 81 -36 39 -29 41 24 7 22 -14 40 -21 40 -17 0 5 -11 40 -24 80 -35 101
-13 101 50 1 54 -87 80 -102 71 -41 -27 175 -19 172 53 -27z m4025 -22 l55
-31 -60 -67 c-187 -207 -185 -205 -208 -192 l-23 12 36 62 c19 34 59 104 88
154 28 51 53 93 55 93 1 0 27 -14 57 -31z m-279 -212 c17 -92 33 -170 37 -173
3 -3 53 15 112 41 59 25 108 45 109 43 9 -13 44 -123 41 -128 -3 -4 -52 -15
-110 -25 l-105 -18 -31 29 c-28 26 -36 29 -88 26 -50 -3 -62 0 -87 21 -27 24
-29 31 -33 112 -5 128 4 172 45 213 22 22 41 32 56 30 21 -3 25 -15 54 -171z
m-978 139 c38 -20 86 -73 111 -122 l20 -42 -114 -51 c-63 -28 -121 -51 -128
-51 -6 1 -30 24 -51 51 -45 58 -50 55 -59 -35 -3 -32 -8 -60 -11 -63 -3 -3
-34 15 -69 40 l-65 45 -4 -85 c-3 -78 -5 -87 -31 -109 -18 -15 -41 -24 -62
-24 -31 0 -37 5 -51 38 -24 58 -29 133 -11 169 28 53 71 80 154 99 94 20 104
25 167 77 90 75 148 92 204 63z m-2547 -156 c52 -11 148 -25 214 -30 186 -17
234 -27 312 -65 155 -76 232 -229 220 -435 -12 -210 -113 -366 -316 -486 -224
-132 -448 -150 -636 -51 -81 43 -193 156 -229 232 -63 131 -43 279 58 434 48
72 136 267 136 301 0 21 40 89 62 104 30 21 66 20 179 -4z m2689 -75 c0 -32
-32 -170 -52 -223 -24 -64 -85 -135 -142 -164 -52 -26 -116 -21 -191 17 -50
26 -135 102 -135 122 0 5 27 23 60 41 45 25 60 30 60 19 0 -11 27 -21 91 -36
50 -12 102 -24 116 -27 l25 -7 -7 89 -7 89 84 47 c94 53 98 54 98 33z m720
-203 c97 -48 109 -68 86 -143 -22 -69 -70 -140 -231 -342 -80 -100 -173 -202
-243 -267 -166 -154 -198 -178 -258 -196 -56 -16 -61 -22 -43 -55 9 -18 -1
-32 -84 -117 l-95 -96 -40 12 c-49 15 -58 37 -37 89 28 67 139 163 189 163 12
0 12 7 -2 50 -29 91 12 161 104 175 19 3 50 8 70 11 l36 5 -21 23 c-22 24 -41
75 -41 113 0 17 9 25 40 33 35 9 48 7 107 -16 38 -15 90 -38 118 -52 l49 -24
-81 87 c-72 77 -83 93 -93 142 -7 30 -10 56 -8 59 3 2 26 8 52 13 53 10 90 4
158 -27 40 -18 49 -18 59 -6 6 8 10 16 8 18 -2 1 -38 29 -79 61 -41 32 -79 61
-84 66 -13 11 70 161 113 203 44 43 102 67 146 59 17 -2 64 -21 105 -41z
m4777 -57 c50 -50 50 -46 19 -180 -37 -164 -2 -307 121 -485 79 -115 286 -371
331 -408 73 -61 160 -113 246 -148 44 -18 83 -39 86 -46 7 -12 22 -179 36
-391 l6 -98 -38 6 c-455 79 -835 370 -1005 769 -66 155 -94 339 -69 447 14 58
49 135 83 181 19 25 22 49 28 186 4 86 12 169 18 185 9 23 16 27 52 27 36 0
48 -6 86 -45z m-1885 14 c106 -23 183 -79 227 -166 23 -45 51 -190 51 -260 0
-98 -86 -128 -360 -127 -135 0 -161 3 -202 21 -60 27 -82 67 -83 148 0 110 48
157 198 191 l82 19 -60 3 c-33 2 -78 -2 -100 -8 -48 -14 -121 -59 -157 -97
-38 -40 -128 -174 -128 -190 0 -17 160 -93 250 -119 52 -15 97 -19 220 -18
185 1 246 16 485 121 308 135 502 187 698 188 107 0 109 0 133 -28 21 -24 24
-38 24 -101 0 -41 -3 -89 -7 -107 -6 -33 -8 -30 -34 50 l-27 84 -16 -56 -17
-57 -68 0 -68 0 -9 52 c-13 73 -30 72 -46 -4 l-14 -63 -55 -12 c-64 -15 -79
-11 -80 19 0 13 -4 32 -8 42 -6 16 -18 4 -71 -70 -80 -113 -74 -107 -99 -99
-15 4 -23 18 -27 46 -4 21 -9 39 -13 39 -3 -1 -37 -45 -75 -100 -38 -55 -72
-97 -75 -94 -3 3 -17 35 -32 71 l-26 65 -19 -73 c-20 -78 -26 -82 -121 -103
-30 -7 -32 -5 -46 36 l-14 43 -18 -44 c-22 -53 -58 -71 -143 -71 l-58 0 -20
63 -20 62 -14 -55 c-7 -30 -18 -58 -24 -62 -6 -4 -33 -8 -61 -8 -64 0 -109 27
-126 74 -7 20 -15 36 -19 36 -3 0 -13 -21 -24 -46 l-19 -46 -91 91 c-86 86
-93 90 -111 76 -44 -32 -45 -27 -45 198 0 191 2 216 21 257 41 92 133 159 253
185 76 17 238 19 308 4z m-1438 -478 c7 -11 -59 -97 -105 -136 -61 -51 -113
-68 -196 -63 -41 3 -79 10 -84 15 -14 14 48 112 89 142 58 41 94 50 194 51 53
0 99 -4 102 -9z m159 -86 c76 -72 109 -142 105 -222 l-3 -58 -80 -7 c-172 -15
-276 -54 -369 -139 -49 -45 -58 -49 -88 -44 -19 4 -56 18 -83 33 -61 33 -81
70 -90 170 l-7 72 98 0 c209 0 338 62 419 199 17 28 32 51 35 51 3 0 32 -25
63 -55z m-1203 -205 c-27 -120 -105 -222 -196 -255 -100 -36 -154 -66 -169
-95 -10 -19 -15 -58 -15 -113 l0 -84 68 13 c37 7 99 20 137 28 140 31 236 11
320 -65 88 -81 123 -200 112 -384 -11 -184 -74 -347 -203 -518 -118 -157 -150
-168 -321 -112 -134 43 -149 41 -252 -20 -132 -79 -198 -70 -302 43 -67 74
-149 226 -174 327 -38 148 -37 362 1 495 24 82 98 152 195 181 62 19 86 21
173 15 56 -3 113 -9 127 -12 l25 -6 38 189 c64 316 89 368 188 398 28 8 54 13
56 10 3 -2 -13 -25 -34 -51 -21 -25 -47 -58 -56 -72 -18 -27 -25 -107 -10
-115 4 -3 34 4 67 14 114 35 179 119 174 223 -3 47 -1 51 26 62 29 12 30 11
33 -14 2 -15 -2 -52 -8 -82z m-2176 10 c108 -27 190 -74 269 -151 203 -201
207 -510 11 -719 -181 -192 -464 -229 -674 -88 -85 56 -190 187 -190 234 1 43
13 45 91 19 41 -14 124 -49 184 -78 107 -50 112 -52 200 -52 76 0 98 4 146 26
68 32 118 81 150 145 21 42 24 64 24 149 0 89 -3 106 -27 152 -34 64 -86 115
-147 145 -38 19 -62 23 -141 23 -92 0 -98 -1 -185 -44 -49 -24 -133 -58 -185
-76 -52 -18 -103 -36 -113 -40 -16 -7 -16 -3 3 41 66 152 207 277 363 319 73
19 131 18 221 -5z m3459 -202 l29 -15 -79 -65 c-120 -101 -150 -118 -199 -118
-42 0 -43 1 -55 42 -32 121 35 182 196 175 46 -2 92 -10 108 -19z m2027 -163
c226 -13 325 -40 363 -98 51 -78 43 -167 -24 -253 -52 -67 -62 -103 -45 -157
21 -67 219 -562 277 -693 65 -146 101 -208 174 -299 106 -132 150 -171 224
-199 79 -31 178 -106 205 -158 18 -31 18 -41 8 -76 -7 -23 -28 -58 -47 -78
-33 -34 -38 -36 -83 -32 -102 10 -158 49 -326 226 -205 215 -256 293 -396 605
-29 64 -55 117 -59 116 -3 0 -64 -66 -136 -146 -356 -399 -489 -549 -501 -568
-7 -11 -20 -55 -28 -97 -32 -168 -119 -260 -266 -283 -94 -15 -124 -54 -100
-129 7 -23 15 -67 17 -98 l5 -58 -141 0 -141 0 0 65 0 65 39 0 c54 0 85 30
115 108 l25 63 -59 59 c-75 77 -123 99 -216 100 -96 0 -108 -11 -140 -125 -95
-338 -322 -578 -643 -679 -274 -86 -593 -41 -842 118 -98 64 -222 192 -283
294 -130 218 -176 518 -116 758 64 254 272 504 527 633 198 100 480 118 720
46 l51 -15 -16 -41 c-19 -50 -71 -96 -118 -105 -20 -4 -67 -2 -104 5 -165 27
-298 8 -445 -64 -163 -79 -289 -205 -370 -370 -61 -123 -79 -196 -79 -330 0
-350 234 -662 566 -755 278 -78 581 7 781 219 36 38 84 101 107 140 51 85 92
209 84 250 l-6 29 -257 7 c-275 7 -310 4 -443 -41 -115 -39 -179 -19 -219 70
-44 97 -15 167 104 252 l79 57 325 490 c179 269 336 510 350 536 32 59 27 133
-11 192 -33 49 -61 67 -130 83 -30 7 -67 21 -80 30 -33 21 -66 86 -69 133 -2
35 0 38 38 52 22 7 92 16 155 18 137 6 261 -16 383 -67 70 -29 187 -104 187
-120 0 -3 -70 -17 -155 -31 l-155 -24 151 -335 c83 -184 198 -441 256 -570
128 -286 139 -306 174 -320 53 -22 129 21 129 74 0 10 -11 34 -26 53 -20 27
-25 42 -22 81 l3 47 131 3 131 3 7 -32 c14 -74 0 -101 -61 -114 -28 -5 -35
-15 -62 -78 -27 -65 -29 -73 -14 -84 12 -10 22 -9 48 5 51 26 627 671 651 729
20 47 17 114 -7 175 -12 29 -31 84 -44 121 -43 125 -97 166 -192 148 l-43 -8
0 88 c0 49 1 89 3 89 1 0 72 9 157 20 85 11 156 20 158 20 1 0 2 11 2 23 0 23
-4 24 -97 30 -54 4 -133 7 -175 7 l-78 0 0 105 c0 104 0 105 23 101 12 -3 74
-8 137 -11z m1278 -959 c229 -63 431 -203 547 -378 35 -54 37 -61 31 -110 -16
-129 -50 -317 -56 -313 -4 3 -11 24 -14 47 -8 55 -62 179 -105 243 -47 70
-146 170 -214 217 -209 143 -446 175 -689 94 -59 -20 -111 -36 -116 -36 -13 0
-75 137 -68 149 9 13 93 57 150 78 141 51 369 54 534 9z m-7382 -54 c-46 -91
-45 -92 21 -92 101 -1 133 -13 186 -72 26 -29 64 -87 85 -128 36 -73 37 -76
36 -185 -3 -169 -55 -350 -125 -430 -66 -75 -154 -86 -260 -33 -46 23 -93 61
-170 137 -159 158 -230 284 -213 378 8 47 44 120 78 161 15 16 26 32 26 35 0
3 -26 13 -57 22 -139 38 -138 53 3 91 l106 29 -7 50 c-11 86 -11 89 6 93 10 2
35 -19 64 -52 l47 -56 86 60 c65 45 88 57 98 49 11 -9 9 -20 -10 -57z m6412
-344 c38 -77 39 -139 4 -243 -48 -138 -62 -211 -62 -320 0 -119 16 -190 69
-300 68 -143 194 -278 338 -363 281 -166 667 -109 926 136 31 30 57 53 57 50
0 -9 -58 -174 -90 -256 -30 -79 -34 -84 -83 -109 -221 -111 -490 -132 -732
-56 -342 108 -584 378 -657 733 -16 77 -19 121 -15 230 6 154 26 247 81 362
40 84 114 190 130 185 6 -1 21 -24 34 -49z m-4554 -88 c120 -45 196 -149 204
-280 4 -68 7 -78 37 -110 96 -103 89 -197 -29 -380 -56 -86 -82 -105 -136 -96
-65 10 -182 66 -215 102 l-30 32 -180 -203 c-195 -220 -217 -237 -229 -167
-10 66 -7 80 54 233 33 82 63 166 66 187 8 54 -14 94 -65 115 -23 9 -59 24
-80 33 -22 9 -52 30 -68 46 -40 42 -38 111 5 193 22 41 32 74 32 104 0 68 20
118 61 156 50 45 96 53 179 31 80 -20 101 -19 165 4 68 25 161 25 229 0z
m-1232 -1460 c90 -25 100 -85 96 -595 -3 -361 -4 -392 -22 -421 -37 -62 -62
-69 -246 -69 -141 0 -170 3 -198 18 -66 36 -67 41 -67 537 0 408 1 448 17 473
20 29 48 47 93 58 46 11 286 10 327 -1z m2434 -9 c34 -16 45 -28 60 -67 18
-45 19 -83 19 -479 0 -392 -2 -433 -18 -462 -32 -60 -62 -68 -247 -68 -186 0
-210 6 -244 65 -20 34 -21 52 -24 465 -3 471 -1 494 55 530 43 29 72 33 218
34 116 0 147 -3 181 -18z m2159 -46 c89 -21 158 -45 179 -64 19 -16 98 -169
109 -210 6 -26 42 -28 68 -5 17 15 19 14 40 -29 l22 -44 -32 -47 c-50 -72
-146 -171 -205 -210 -89 -59 -164 -79 -296 -80 -249 -1 -383 66 -516 256 -53
76 -56 84 -46 111 55 145 205 280 359 322 65 18 244 18 318 0z m-5113 -340 c5
-44 5 -133 2 -197 l-6 -118 -39 -35 c-22 -19 -43 -35 -48 -35 -5 0 -38 31 -74
70 -54 57 -70 81 -86 135 -12 39 -18 77 -14 95 6 32 54 80 79 80 9 0 34 20 57
45 37 42 45 46 81 43 l41 -3 7 -80z m3245 56 c70 -51 108 -97 126 -154 31 -99
18 -145 -51 -168 -20 -7 -64 -36 -96 -66 -42 -37 -62 -50 -67 -41 -4 7 -17 48
-29 92 -18 64 -21 98 -18 193 l3 115 33 29 c40 36 49 36 99 0z m-832 -196 l0
-90 -857 -3 -858 -2 0 95 0 95 858 -2 857 -3 0 -90z m-233 -346 c-2 -8 -39
-96 -83 -197 -43 -101 -79 -188 -79 -193 0 -5 7 -12 15 -15 9 -4 77 51 191
155 l177 161 49 -42 c49 -41 50 -42 31 -57 -11 -9 -86 -64 -166 -124 l-146
-107 63 -63 c83 -81 109 -145 109 -267 1 -99 -19 -174 -71 -273 -94 -181 -272
-279 -507 -279 -110 -1 -194 20 -288 69 -174 92 -319 316 -304 474 7 78 72
214 124 259 21 18 72 64 113 103 42 40 99 81 130 96 103 48 217 29 346 -59 25
-16 48 -30 52 -30 4 0 36 93 71 208 36 114 66 210 68 213 1 4 27 1 55 -5 37
-9 52 -17 50 -27z m1923 -204 c48 -22 91 -59 210 -179 110 -111 166 -160 211
-183 34 -18 66 -39 72 -46 14 -17 102 -370 102 -409 0 -41 -24 -83 -84 -146
-62 -66 -112 -93 -185 -99 -59 -6 -162 15 -238 48 -24 10 -43 16 -43 13 0 -3
-38 -171 -85 -374 -47 -203 -85 -371 -85 -375 0 -3 -30 -5 -67 -3 l-68 3 -46
309 c-50 331 -52 338 -119 383 -38 26 -72 28 -182 11 -132 -20 -216 13 -247
95 -6 16 -11 77 -11 137 l0 108 -36 44 c-49 57 -67 102 -66 164 0 63 20 110
66 162 49 54 118 82 220 89 l83 6 26 42 c36 57 143 157 197 185 80 42 120 50
220 47 80 -3 105 -8 155 -32z"/>
<path d="M1590 7184 c75 -51 188 -167 230 -238 19 -33 48 -99 66 -149 35 -101
44 -96 44 26 0 196 -147 361 -350 391 l-45 7 55 -37z"/>
<path d="M1385 7081 c-6 -10 255 -541 266 -541 3 0 13 6 23 13 17 12 14 23
-49 173 -112 265 -207 407 -240 355z"/>
<path d="M1134 6935 c-30 -163 133 -409 309 -465 21 -7 40 -10 43 -8 3 4 -324
489 -341 506 -2 2 -7 -13 -11 -33z"/>
<path d="M9437 6533 c-16 -35 -22 -67 -22 -118 0 -94 31 -157 99 -203 27 -18
51 -31 53 -29 6 7 -92 397 -100 397 -4 0 -18 -21 -30 -47z"/>
<path d="M7642 6813 l3 -98 -59 -10 c-54 -9 -79 -26 -59 -38 8 -5 371 78 380
87 12 12 -224 156 -257 156 -7 0 -10 -33 -8 -97z"/>
<path d="M4474 5666 c-79 -34 -139 -118 -169 -233 -19 -74 -19 -247 0 -338 18
-84 70 -198 115 -249 31 -34 87 -72 96 -64 2 2 -15 60 -37 128 -90 274 -90
345 -4 620 19 63 38 123 41 133 6 20 -1 21 -42 3z"/>
<path d="M6825 4689 c-180 -271 -330 -500 -332 -506 -4 -10 62 -13 311 -13
181 0 316 4 316 9 0 5 -50 115 -111 244 l-111 236 42 60 c24 34 46 61 51 61
14 0 124 -128 157 -183 54 -89 102 -210 130 -328 l27 -109 97 0 c141 0 168 18
155 109 -3 28 -352 819 -397 900 -6 11 -104 -131 -335 -480z"/>
<path d="M7182 2858 c-19 -14 -45 -49 -65 -88 -42 -84 -44 -164 -6 -259 l25
-64 54 204 c29 112 55 210 58 217 7 20 -30 14 -66 -10z"/>
<path d="M4108 1816 c-45 -12 -118 -54 -118 -68 0 -3 12 -21 26 -38 15 -17 25
-32 23 -34 -13 -11 -71 -36 -84 -36 -9 0 -43 -18 -77 -41 l-60 -41 33 -34 c56
-58 90 -69 214 -67 66 0 135 7 171 17 80 21 117 20 310 -4 226 -28 208 -31
200 37 -18 151 -124 213 -288 167 -68 -19 -74 -16 -98 48 -13 36 -24 47 -70
70 -69 34 -122 41 -182 24z"/>
<path d="M6260 1839 c-87 -39 -99 -69 -80 -193 12 -74 13 -76 42 -76 26 0 28
2 17 21 -6 12 -11 44 -11 70 0 50 22 97 78 167 31 38 19 41 -46 11z"/>
<path d="M3750 9885 c-70 -16 -187 -70 -234 -108 l-29 -24 73 -106 73 -107
301 0 301 1 73 104 c39 57 72 109 72 115 0 15 -150 87 -232 111 -96 28 -304
35 -398 14z"/>
<path d="M3360 9479 c-38 -38 -66 -92 -76 -144 -4 -22 -25 -80 -47 -130 -57
-128 -58 -164 -9 -311 44 -131 172 -431 205 -481 45 -67 120 -81 186 -34 66
47 59 171 -14 270 -69 95 -82 205 -44 374 47 207 2 298 -138 284 l-57 -6 35
21 c19 11 51 36 71 55 l37 36 -25 37 c-22 33 -59 60 -84 60 -5 0 -22 -14 -40
-31z"/>
<path d="M4380 9452 c-14 -26 -26 -49 -27 -52 -2 -3 27 -20 65 -38 57 -27 75
-32 110 -26 51 8 64 23 60 66 -3 31 -5 33 -46 34 -23 1 -53 9 -67 18 -79 51
-69 51 -95 -2z"/>
<path d="M4607 9358 c-14 -12 -8 -26 56 -140 63 -111 74 -126 85 -111 25 34
14 86 -33 157 -24 37 -47 76 -50 87 -7 22 -34 25 -58 7z"/>
<path d="M4395 9311 c-73 -18 -95 -39 -119 -113 -3 -10 4 -68 15 -130 29 -158
24 -299 -15 -383 -15 -33 -40 -80 -56 -105 -55 -86 -44 -158 29 -207 63 -42
136 -21 185 54 14 21 54 115 89 209 36 94 86 218 111 276 69 158 61 222 -36
314 -90 86 -130 102 -203 85z"/>
<path d="M364 4918 c11 -137 11 -136 62 -144 72 -10 320 0 338 15 14 12 28 66
42 164 l6 47 -227 0 -227 0 6 -82z"/>
<path d="M786 4434 c-112 -118 -118 -125 -100 -139 27 -21 77 -34 108 -28 14
3 46 23 70 44 47 42 146 161 146 175 0 8 -95 75 -102 73 -2 0 -57 -56 -122
-125z"/>
<path d="M1185 4388 c-35 -19 -75 -61 -136 -140 l-59 -77 36 -11 c58 -19 112
-14 155 14 41 28 142 153 136 170 -5 14 -78 56 -97 56 -8 -1 -24 -6 -35 -12z"/>
<path d="M370 3960 c-85 -3 -163 -10 -173 -14 -15 -7 -17 -16 -12 -45 10 -57
35 -101 60 -107 28 -7 48 3 106 52 117 98 214 98 320 -1 86 -80 112 -80 198 0
55 52 105 75 158 75 38 0 135 -39 147 -59 4 -6 27 -23 52 -37 61 -36 86 -28
124 39 16 28 30 55 30 58 0 4 -22 16 -49 28 -48 20 -62 21 -428 19 -208 -1
-448 -5 -533 -8z"/>
<path d="M477 3752 c-35 -37 -34 -59 7 -116 l34 -48 36 48 c20 26 36 55 36 64
0 17 -62 80 -78 80 -5 0 -20 -13 -35 -28z"/>
<path d="M977 3742 l-38 -38 36 -37 c20 -20 44 -37 54 -37 10 0 38 17 61 38
l44 38 -49 37 c-26 20 -53 37 -59 37 -7 0 -29 -17 -49 -38z"/>
<path d="M1459 3748 c-16 -18 -29 -37 -29 -43 0 -16 64 -75 81 -75 16 0 99 66
99 78 0 10 -93 72 -108 72 -7 0 -26 -15 -43 -32z"/>
</g>
</svg>
