<?xml version="1.0" standalone="no"?>
<!DOCTYPE svg PUBLIC "-//W3C//DTD SVG 20010904//EN"
 "http://www.w3.org/TR/2001/REC-SVG-20010904/DTD/svg10.dtd">
<svg version="1.0" xmlns="http://www.w3.org/2000/svg"
 width="1043.000000pt" height="1043.000000pt" viewBox="0 0 1043.000000 1043.000000"
 preserveAspectRatio="xMidYMid meet">
<metadata>
Created by potrace 1.16, written by Peter Selinger 2001-2019
</metadata>
<g transform="translate(0.000000,1043.000000) scale(0.100000,-0.100000)"
fill="#000000" stroke="none">
<path d="M4880 10419 c-1136 -75 -2195 -506 -3060 -1245 -248 -211 -566 -550
-763 -811 -961 -1278 -1285 -2892 -891 -4445 372 -1469 1391 -2719 2759 -3387
981 -479 2074 -637 3165 -455 807 134 1575 462 2235 954 397 295 771 668 1070
1065 1005 1339 1301 3118 785 4720 -206 639 -531 1227 -970 1755 -133 161
-479 507 -640 640 -526 437 -1117 764 -1751 968 -613 198 -1301 283 -1939 241z
m-806 -2529 c224 -58 420 -218 521 -425 59 -121 76 -188 82 -326 13 -291 -110
-540 -351 -710 l-69 -49 683 0 c376 0 680 4 674 8 -5 4 -35 25 -67 46 -100 67
-200 184 -257 299 -64 130 -81 195 -87 333 -25 545 473 954 1007 829 36 -9
111 -38 167 -65 81 -40 118 -65 187 -131 191 -180 279 -398 263 -647 -11 -160
-60 -298 -151 -427 -52 -72 -161 -175 -226 -214 l-45 -26 360 -5 c354 -5 361
-5 405 -29 61 -32 126 -96 158 -156 l27 -50 5 -287 5 -287 627 304 c345 168
630 305 633 305 3 0 5 -612 5 -1360 0 -748 -1 -1360 -3 -1360 -2 0 -286 137
-631 305 -346 168 -630 305 -631 305 -2 0 -5 -129 -7 -287 l-3 -288 -27 -50
c-32 -62 -103 -129 -166 -158 l-47 -22 -2145 0 -2145 0 -56 28 c-66 32 -132
99 -162 165 l-22 47 0 1315 0 1315 22 47 c30 66 104 141 166 169 50 23 63 24
376 29 l323 5 -71 49 c-123 84 -232 218 -287 354 -46 116 -58 180 -58 317 0
156 20 240 91 379 39 75 64 108 147 191 104 104 188 158 311 200 142 49 319
54 469 15z"/>
</g>
</svg>
