<?xml version="1.0" standalone="no"?>
<!DOCTYPE svg PUBLIC "-//W3C//DTD SVG 20010904//EN"
 "http://www.w3.org/TR/2001/REC-SVG-20010904/DTD/svg10.dtd">
<svg version="1.0" xmlns="http://www.w3.org/2000/svg"
 width="1043.000000pt" height="1043.000000pt" viewBox="0 0 1043.000000 1043.000000"
 preserveAspectRatio="xMidYMid meet">
<metadata>
Created by potrace 1.16, written by Peter Selinger 2001-2019
</metadata>
<g transform="translate(0.000000,1043.000000) scale(0.100000,-0.100000)"
fill="#000000" stroke="none">
<path d="M4985 10419 c-1655 -68 -3176 -924 -4105 -2309 -492 -734 -775 -1543
-861 -2460 -17 -174 -17 -707 -1 -875 68 -701 229 -1278 522 -1870 267 -541
561 -949 994 -1380 421 -421 819 -709 1337 -970 1465 -739 3200 -742 4670 -10
532 265 982 595 1409 1031 182 187 281 301 435 505 988 1310 1297 3028 830
4614 -338 1147 -1070 2149 -2067 2829 -393 268 -882 508 -1325 650 -593 189
-1207 272 -1838 245z m3048 -2066 c27 -30 408 -566 404 -569 -8 -9 -642 -82
-653 -76 -21 12 -424 576 -416 584 9 8 529 75 598 77 37 1 55 -4 67 -16z
m-1498 -470 c214 -296 219 -303 213 -308 -2 -2 -145 -22 -318 -44 -269 -34
-318 -38 -336 -26 -11 7 -68 80 -126 161 -58 82 -150 210 -203 284 -91 126
-96 135 -74 139 98 16 545 69 589 70 l55 1 200 -277z m-1895 67 c11 0 420
-565 420 -580 0 -5 -5 -10 -10 -10 -6 0 -137 -16 -291 -35 -155 -19 -298 -35
-319 -35 -37 0 -37 0 -239 280 -111 154 -204 286 -207 295 -4 9 -1 15 7 15 8
1 147 18 309 39 162 22 301 37 308 35 8 -2 18 -4 22 -4z m-1674 -213 c127
-172 398 -556 402 -569 3 -11 -1 -18 -11 -18 -8 0 -142 -16 -298 -35 -156 -20
-298 -34 -316 -33 -29 3 -48 26 -238 291 -114 159 -204 291 -202 294 10 9 611
81 637 76 14 -2 26 -5 26 -6z m-888 -261 c92 -48 123 -165 65 -245 -10 -14
-40 -37 -66 -50 -69 -34 -127 -24 -183 33 -65 64 -69 148 -12 221 40 51 137
72 196 41z m1312 -610 c0 -11 -331 -610 -346 -627 -16 -18 -36 -19 -341 -19
-177 0 -323 4 -323 8 0 16 332 618 347 630 13 9 97 12 340 12 178 0 323 -2
323 -4z m1700 -1 c0 -12 -343 -631 -354 -637 -15 -10 -656 -10 -656 0 0 16
332 617 348 630 12 9 96 12 339 12 178 0 323 -2 323 -5z m1690 -9 c0 -22 -319
-599 -341 -618 -19 -16 -51 -18 -340 -18 -175 0 -319 4 -319 8 0 16 332 617
348 630 24 19 652 18 652 -2z m1700 0 c0 -22 -319 -599 -341 -618 -19 -16 -51
-18 -340 -18 -175 0 -319 4 -319 8 0 9 327 611 342 630 16 19 658 18 658 -2z
m-210 -1436 c0 -20 -7 -20 -3160 -20 -3153 0 -3160 0 -3160 20 0 20 7 20 3160
20 3153 0 3160 0 3160 -20z m0 -950 c0 -20 -7 -20 -3160 -20 -3153 0 -3160 0
-3160 20 0 20 7 20 3160 20 3153 0 3160 0 3160 -20z m0 -945 l0 -25 -915 0
-915 0 0 -465 0 -465 -25 0 -25 0 0 465 0 465 -1280 0 -1280 0 0 -465 0 -465
-25 0 -25 0 0 465 0 465 -915 0 -915 0 0 25 0 25 3160 0 3160 0 0 -25z"/>
</g>
</svg>
