<?xml version="1.0" standalone="no"?>
<!DOCTYPE svg PUBLIC "-//W3C//DTD SVG 20010904//EN"
 "http://www.w3.org/TR/2001/REC-SVG-20010904/DTD/svg10.dtd">
<svg version="1.0" xmlns="http://www.w3.org/2000/svg"
 width="1048.000000pt" height="1043.000000pt" viewBox="0 0 1048.000000 1043.000000"
 preserveAspectRatio="xMidYMid meet">
<metadata>
Created by potrace 1.16, written by Peter Selinger 2001-2019
</metadata>
<g transform="translate(0.000000,1043.000000) scale(0.100000,-0.100000)"
fill="#000000" stroke="none">
<path d="M5060 10423 c-915 -40 -1756 -295 -2525 -766 -1300 -795 -2199 -2148
-2424 -3647 -45 -302 -55 -441 -55 -810 0 -195 3 -364 7 -375 6 -15 53 96 191
453 101 260 185 475 188 477 6 6 104 -6 118 -15 8 -5 12 -55 13 -161 l1 -154
-63 -240 c-35 -132 -91 -343 -124 -470 l-61 -230 0 -200 -1 -199 33 -7 c33 -7
34 -5 294 289 181 205 261 303 260 317 -1 11 -134 466 -295 1010 -162 545
-290 991 -286 993 18 8 129 -61 175 -110 59 -61 93 -111 154 -223 62 -115 111
-184 163 -232 45 -42 105 -78 114 -70 3 4 -191 986 -213 1071 -5 20 0 24 53
35 l57 13 53 -56 c68 -73 133 -206 173 -353 16 -62 44 -163 60 -223 17 -61 44
-146 60 -189 36 -92 107 -208 120 -195 18 18 59 142 75 225 9 46 22 210 30
364 14 277 27 383 60 480 20 59 59 138 88 179 l20 28 15 -27 c28 -54 63 -171
79 -265 12 -75 15 -162 14 -414 -1 -291 9 -490 28 -562 l7 -28 33 48 c58 83
118 226 176 416 92 299 132 388 224 493 36 41 39 42 95 26 l39 -11 -7 -136
c-9 -167 -17 -209 -117 -637 -143 -607 -141 -593 -113 -731 22 -112 19 -107
51 -88 54 34 96 80 165 184 149 222 236 275 388 236 36 -9 69 -21 74 -26 5 -5
-23 -52 -65 -110 -41 -56 -73 -107 -71 -113 1 -7 87 -250 191 -542 l189 -530
33 -3 c34 -3 34 -2 62 70 30 80 31 91 67 638 20 303 39 431 74 499 18 34 81
91 102 91 8 0 33 -17 55 -38 31 -28 43 -49 49 -82 5 -25 15 -294 22 -599 l12
-553 24 -9 c34 -13 33 -14 79 54 62 92 242 560 298 777 27 103 17 172 -45 328
-37 94 -77 169 -131 253 l-79 120 46 28 c100 64 190 61 266 -7 43 -38 134
-170 228 -330 l55 -94 40 7 c21 3 41 8 43 10 11 11 32 289 27 354 -6 70 -75
354 -200 826 -45 169 -56 225 -56 290 -1 77 25 220 40 230 14 8 89 -64 135
-128 71 -100 111 -192 191 -434 78 -237 118 -332 181 -430 l38 -58 9 45 c5 25
11 281 15 570 l7 526 55 108 c30 59 57 109 61 112 9 5 103 -139 128 -196 22
-51 36 -170 51 -435 28 -493 31 -519 56 -629 14 -61 27 -112 29 -114 2 -2 24
31 49 75 61 103 112 237 180 469 65 225 118 358 181 460 50 80 139 183 149
173 14 -13 23 -209 15 -305 -11 -126 -25 -195 -94 -454 -56 -210 -85 -354 -85
-419 0 -30 5 -40 29 -54 l30 -17 134 197 c73 109 180 267 236 351 56 83 106
152 111 152 21 0 100 -45 100 -57 0 -17 -55 -219 -82 -303 -11 -36 -42 -117
-69 -180 -92 -223 -87 -314 30 -480 59 -85 98 -180 146 -362 48 -177 60 -216
107 -330 43 -105 49 -109 116 -92 l22 6 0 644 0 644 33 0 c17 0 48 3 67 6 34
5 36 4 69 -50 18 -30 44 -83 58 -116 47 -117 54 -176 63 -525 9 -350 20 -450
65 -578 13 -38 27 -72 30 -75 20 -21 119 178 173 348 22 69 61 191 86 271 25
81 66 187 90 235 42 84 128 203 152 211 14 5 32 -56 45 -158 14 -104 2 -221
-47 -443 -19 -88 -42 -204 -49 -256 -16 -105 -19 -257 -6 -278 6 -10 37 28
106 130 119 173 352 495 364 503 5 3 16 -16 23 -42 8 -27 104 -351 214 -720
l199 -673 41 0 c31 0 43 4 47 18 2 9 16 56 30 104 22 72 30 135 47 375 27 380
49 611 61 650 9 28 119 162 140 171 4 2 29 -41 56 -94 l48 -97 -2 -549 c-1
-301 -1 -548 0 -548 1 0 17 -4 35 -10 l34 -9 25 57 c14 31 99 215 189 409 234
505 264 572 264 598 0 42 -228 791 -320 1050 -47 134 -100 315 -100 344 0 17
41 10 110 -20 73 -31 155 -125 235 -268 103 -182 189 -279 276 -310 22 -8 26
-6 23 7 -21 88 -224 1079 -224 1092 0 11 16 20 52 30 l52 13 63 -66 c84 -90
139 -205 199 -417 65 -233 102 -344 141 -425 39 -79 92 -165 102 -165 9 0 68
223 75 285 3 28 13 169 21 315 27 469 35 521 92 620 l27 45 34 -75 c19 -41 58
-134 88 -207 l54 -132 0 -303 c0 -265 10 -471 23 -484 2 -3 18 -9 35 -13 l30
-9 43 113 c24 63 45 112 47 111 6 -7 42 -166 66 -297 72 -394 102 -876 77
-1266 l-6 -103 -37 -31 c-45 -36 -117 -128 -145 -184 -40 -79 -50 -175 -26
-271 2 -12 31 -41 64 -65 32 -23 59 -45 59 -48 1 -29 -55 -250 -62 -243 -5 5
-22 7 -38 4 l-30 -4 0 -141 c0 -138 -1 -143 -41 -261 -72 -215 -148 -396 -264
-631 -214 -437 -448 -787 -765 -1148 -62 -70 -113 -127 -115 -125 -1 2 35 324
81 717 46 393 82 717 79 719 -8 8 -147 -108 -224 -187 -87 -91 -188 -238 -231
-341 -45 -104 -79 -247 -86 -359 -4 -53 -1 -273 5 -489 7 -216 9 -400 6 -410
-13 -38 -342 -292 -575 -444 -202 -132 -514 -308 -525 -296 -2 2 9 91 25 198
16 107 62 454 102 770 l72 575 0 285 c1 348 -8 408 -108 735 -21 66 -62 242
-91 390 -55 274 -78 355 -162 569 l-46 119 -39 -99 c-50 -128 -102 -305 -127
-436 -53 -274 -52 -446 3 -888 33 -263 266 -2252 266 -2270 0 -10 -227 -109
-394 -172 -238 -90 -643 -205 -788 -224 l-51 -7 7 339 c18 917 36 2076 37
2389 2 433 -11 524 -97 698 -50 100 -72 127 -229 282 -155 153 -188 197 -380
525 -72 123 -101 164 -103 148 -1 -13 108 -1013 242 -2223 135 -1210 242
-2203 238 -2207 -33 -32 -1200 -37 -1394 -6 -48 8 -91 17 -95 21 -4 4 28 913
70 2020 43 1106 78 2028 77 2048 0 28 -5 38 -25 47 -14 7 -30 12 -34 12 -21 0
-158 -226 -248 -410 -173 -351 -270 -478 -591 -774 -47 -43 -84 -115 -101
-194 -14 -68 -14 -362 0 -1575 6 -532 9 -970 7 -973 -12 -11 -368 128 -573
224 -210 98 -595 312 -595 330 0 14 62 525 109 907 129 1037 129 1104 5 1540
-120 422 -408 1332 -440 1389 -30 54 -42 56 -110 20 -67 -35 -120 -89 -149
-151 -52 -109 -52 -83 -17 -1566 18 -755 36 -1453 39 -1552 l6 -180 -54 45
c-30 24 -148 137 -264 250 -128 126 -178 170 -128 115 44 -49 148 -156 230
-236 1222 -1192 2954 -1702 4653 -1368 749 147 1505 486 2119 951 277 211 632
547 841 798 709 851 1114 1833 1211 2935 19 209 16 693 -5 905 -67 683 -233
1266 -531 1860 -457 914 -1181 1679 -2070 2190 -156 90 -505 258 -670 323
-675 264 -1422 391 -2125 360z"/>
<path d="M5613 5459 l-111 -421 208 -280 209 -280 10 38 c25 95 31 136 37 239
12 197 -17 357 -134 750 -33 110 -68 236 -78 280 -9 44 -20 83 -24 88 -3 4
-56 -182 -117 -414z"/>
<path d="M2418 5297 c-27 -41 -75 -141 -94 -197 -13 -38 -19 -84 -19 -150 0
-87 3 -101 32 -163 41 -85 130 -177 231 -237 40 -23 75 -41 77 -38 6 6 -199
808 -206 808 -4 0 -13 -10 -21 -23z"/>
<path d="M4040 5212 c-6 -32 -34 -133 -62 -227 -144 -478 -168 -586 -168 -741
1 -117 40 -324 62 -324 25 0 110 100 192 225 100 151 169 224 232 245 49 17
129 17 189 0 25 -7 49 -10 53 -6 4 4 8 56 10 115 8 224 -57 341 -352 628
l-145 141 -11 -56z"/>
<path d="M7512 5022 c-62 -82 -101 -164 -109 -230 -12 -108 54 -238 197 -382
100 -101 183 -171 176 -148 -3 7 -48 193 -102 413 -53 220 -99 403 -103 408
-4 4 -30 -23 -59 -61z"/>
<path d="M9132 4923 c-17 -70 -57 -207 -87 -303 -75 -235 -121 -415 -135 -533
-20 -159 2 -437 35 -437 25 0 137 115 190 194 184 277 225 675 106 1027 -15
46 -39 106 -53 132 l-24 48 -32 -128z"/>
<path d="M816 4123 c-27 -60 -72 -151 -101 -203 -29 -52 -77 -143 -109 -202
-68 -129 -134 -219 -192 -261 -24 -18 -43 -36 -44 -41 -1 -43 326 -756 348
-756 4 0 50 350 103 778 71 566 94 779 85 784 -30 20 -43 5 -90 -99z"/>
</g>
</svg>
