<?xml version="1.0" standalone="no"?>
<!DOCTYPE svg PUBLIC "-//W3C//DTD SVG 20010904//EN"
 "http://www.w3.org/TR/2001/REC-SVG-20010904/DTD/svg10.dtd">
<svg version="1.0" xmlns="http://www.w3.org/2000/svg"
 width="1043.000000pt" height="1042.000000pt" viewBox="0 0 1043.000000 1042.000000"
 preserveAspectRatio="xMidYMid meet">
<metadata>
Created by potrace 1.16, written by Peter Selinger 2001-2019
</metadata>
<g transform="translate(0.000000,1042.000000) scale(0.100000,-0.100000)"
fill="#000000" stroke="none">
<path d="M4905 10413 c-315 -25 -506 -49 -727 -94 -1721 -346 -3155 -1542
-3810 -3179 -346 -865 -453 -1862 -298 -2786 225 -1340 934 -2506 2026 -3327
576 -433 1293 -760 1999 -912 421 -90 620 -110 1120 -110 446 0 537 7 885 66
994 167 1942 639 2681 1335 1164 1096 1752 2622 1628 4224 -97 1252 -649 2427
-1560 3315 -886 863 -2028 1374 -3274 1465 -126 9 -570 11 -670 3z m-1203
-2909 c57 -14 107 -30 112 -34 5 -5 -9 -58 -34 -127 -59 -161 -205 -588 -240
-698 -15 -49 -36 -110 -45 -135 -31 -80 -104 -290 -170 -485 -100 -299 -244
-717 -339 -990 -48 -137 -110 -315 -138 -395 -27 -80 -67 -197 -89 -260 -22
-63 -57 -167 -79 -230 -36 -109 -120 -350 -302 -875 -44 -126 -97 -285 -119
-352 -44 -135 -74 -183 -151 -243 -69 -55 -129 -85 -235 -115 -160 -47 -271
-43 -424 14 -65 25 -175 113 -217 173 -81 119 -161 330 -162 427 0 18 -5 50
-11 70 -23 76 36 183 129 234 87 47 209 31 271 -36 15 -17 28 -49 36 -96 22
-112 55 -213 82 -250 33 -43 109 -91 145 -91 48 0 101 35 147 96 55 76 72 108
114 229 19 55 46 127 60 160 13 33 34 85 47 115 12 30 40 105 61 165 22 61 55
148 74 195 60 149 193 494 200 520 4 14 29 81 55 150 27 69 64 166 83 215 19
50 62 162 96 250 35 88 82 214 105 281 24 66 59 158 79 205 35 82 48 115 148
384 62 167 153 406 180 470 12 28 41 104 64 170 24 66 54 145 68 175 13 31 30
74 37 95 7 22 45 123 85 225 40 102 83 217 95 255 22 69 66 165 75 165 2 0 51
-12 107 -26z m1533 -137 c20 -20 36 -47 39 -68 3 -19 15 -484 26 -1033 20
-1000 20 -1000 42 -1045 31 -61 59 -79 163 -102 132 -28 128 -21 137 -247 4
-103 22 -897 39 -1764 26 -1303 29 -1586 19 -1624 -18 -63 -87 -138 -147 -158
-37 -13 -121 -17 -444 -23 -358 -6 -402 -5 -442 11 -93 35 -128 102 -134 256
-4 111 -61 2929 -65 3257 -3 189 -3 192 21 217 13 13 66 41 118 61 109 43 149
72 163 123 7 26 4 338 -11 1045 -12 554 -18 1018 -15 1032 10 38 48 76 86 85
19 4 111 8 204 9 l168 1 33 -33z m2829 -880 l166 -158 -21 -41 c-11 -22 -19
-42 -16 -44 2 -2 12 14 22 36 12 27 27 43 44 47 14 4 143 7 285 7 l259 1 194
-200 c183 -189 194 -202 189 -232 -2 -18 -30 -125 -62 -238 -51 -181 -60 -205
-78 -206 -19 -2 -19 -2 2 -6 18 -4 256 -260 414 -447 l25 -29 96 15 97 15 0
-106 c0 -131 -20 -284 -55 -421 -30 -118 -103 -312 -117 -308 -5 2 -46 47 -92
101 -62 73 -83 104 -80 120 l5 22 -10 -22 c-7 -15 -25 -24 -63 -33 -286 -62
-561 -120 -574 -120 -9 0 -41 26 -71 58 l-55 57 51 -59 c28 -33 51 -66 51 -72
0 -7 -36 -118 -81 -246 -44 -128 -90 -260 -101 -293 -11 -33 -27 -65 -35 -72
-12 -10 -12 -12 0 -15 15 -3 242 -247 236 -253 -11 -10 -132 -58 -213 -84
-189 -61 -281 -74 -508 -75 -113 -1 -209 1 -212 4 -5 6 78 307 88 317 3 3 -36
51 -87 107 -51 55 -148 165 -215 242 -83 95 -129 140 -140 138 -36 -8 -409
-64 -442 -66 -33 -3 -35 -5 -36 -38 0 -19 -2 -110 -3 -202 -1 -93 -5 -168 -9
-168 -15 0 -190 159 -252 229 -78 87 -175 222 -228 316 -53 95 -102 209 -94
216 4 4 58 21 121 39 94 26 115 30 126 18 6 -7 69 -84 138 -170 70 -86 132
-160 138 -164 6 -3 -55 75 -135 174 l-146 181 10 113 c10 112 44 352 58 417 7
32 12 36 87 62 44 15 75 28 69 28 -6 1 -43 -10 -82 -23 l-72 -25 -147 200
c-82 109 -151 211 -154 226 -4 16 -7 20 -8 11 -1 -16 -68 -54 -78 -44 -8 8 71
234 112 321 52 111 99 190 91 155 l-6 -25 11 25 c48 112 47 111 175 162 65 25
176 65 247 89 l127 43 38 -35 37 -34 -34 37 -33 36 94 195 95 194 75 31 c145
60 335 106 498 121 52 4 98 8 102 7 4 -1 81 -72 172 -159z m1031 -279 c111
-101 265 -272 254 -282 -2 -1 -36 -1 -75 2 l-71 4 -195 202 -196 202 14 33 14
32 87 -60 c49 -33 124 -93 168 -133z m-7579 -1543 c29 -14 73 -48 98 -76 144
-160 89 -415 -109 -505 -73 -33 -131 -39 -203 -20 -105 27 -183 91 -226 185
-28 64 -28 188 1 252 39 86 117 156 206 185 62 21 168 11 233 -21z"/>
<path d="M8015 5854 c-8 -12 -77 -30 -245 -64 -129 -26 -269 -57 -312 -68
l-76 -19 -28 26 -28 26 24 -28 24 -28 -28 -77 c-16 -42 -63 -178 -105 -302
-41 -124 -80 -228 -86 -232 -6 -5 -4 -8 5 -8 8 -1 47 -40 85 -87 39 -48 128
-154 198 -236 122 -143 128 -152 123 -186 l-5 -36 11 32 c12 37 -3 32 398 118
240 51 256 53 275 37 19 -16 19 -16 3 2 -15 17 -12 31 52 220 37 110 86 251
108 313 l40 111 -140 154 c-78 84 -174 188 -215 230 -59 61 -73 82 -68 98 8
24 4 26 -10 4z"/>
</g>
</svg>
