<?xml version="1.0" standalone="no"?>
<!DOCTYPE svg PUBLIC "-//W3C//DTD SVG 20010904//EN"
 "http://www.w3.org/TR/2001/REC-SVG-20010904/DTD/svg10.dtd">
<svg version="1.0" xmlns="http://www.w3.org/2000/svg"
 width="1042.000000pt" height="1043.000000pt" viewBox="0 0 1042.000000 1043.000000"
 preserveAspectRatio="xMidYMid meet">
<metadata>
Created by potrace 1.16, written by Peter Selinger 2001-2019
</metadata>
<g transform="translate(0.000000,1043.000000) scale(0.100000,-0.100000)"
fill="#000000" stroke="none">
<path d="M4965 10419 c-1030 -45 -2033 -402 -2860 -1019 -389 -289 -771 -667
-1056 -1045 -260 -345 -499 -763 -663 -1160 -337 -818 -459 -1747 -346 -2645
169 -1348 866 -2582 1940 -3432 741 -586 1628 -958 2570 -1077 457 -58 967
-53 1435 15 502 72 1030 235 1500 463 1431 695 2469 2005 2814 3551 80 359
111 628 118 1040 8 457 -17 742 -97 1140 -293 1456 -1192 2710 -2485 3469
-611 359 -1332 596 -2054 676 -135 14 -534 36 -611 33 -19 0 -111 -4 -205 -9z
m2615 -4644 l0 -1615 -2305 0 -2305 0 0 1615 0 1615 2305 0 2305 0 0 -1615z
m480 -2187 c127 -183 228 -339 234 -360 15 -56 -16 -125 -69 -155 l-40 -23
-2903 0 c-2453 0 -2908 2 -2936 14 -71 30 -106 129 -70 197 11 20 115 173 232
342 l213 307 2558 0 2557 0 224 -322z"/>
<path d="M4881 3583 c-54 -187 -63 -217 -68 -229 -4 -12 71 -14 465 -14 l470
0 -34 118 c-19 64 -39 134 -45 155 l-10 37 -379 0 -379 0 -20 -67z"/>
</g>
</svg>
